STARTFONT 2.1
FONT --Swiss-Regular-R-Medium--30-240-96-96-P-183-IBM-UGL
SIZE 24 96 96
FONTBOUNDINGBOX 33 37 0 -8
METRICSSET 2
STARTPROPERTIES 28
FONT_ASCENT 23
FONT_DESCENT 7
PIXEL_SIZE 30
RESOLUTION_X 96
RESOLUTION_Y 96
POINT_SIZE 240
FACE_NAME "Helv"
FOUNDRY ""
FAMILY_NAME "Swiss"
WEIGHT_NAME "Regular"
RELATIVE_WEIGHT 50
SLANT "R"
SPACING "P"
SETWIDTH_NAME "Medium"
RELATIVE_SETWIDTH 50
ADD_STYLE_NAME ""
AVERAGE_WIDTH 183
UNDERLINE_POSITION 3
UNDERLINE_THICKNESS 2
SUPERSCRIPT_SIZE 22
SUBSCRIPT_SIZE 22
SUPERSCRIPT_X 0
SUPERSCRIPT_Y 13
SUBSCRIPT_X 0
SUBSCRIPT_Y 6
DEFAULT_CHAR 32
CHARSET_REGISTRY "IBM"
CHARSET_ENCODING "UGL"
ENDPROPERTIES
CHARS 330
STARTCHAR smileface
ENCODING 1
SWIDTH 781 0
DWIDTH 25 0
BBX 23 22 1 0
VVECTOR 13 29
SWIDTH1 0 -1156
DWIDTH1 0 -37
BITMAP 
01FF00
07FFC0
1E00F0
380038
300018
61830C
63C78C
C3C786
C3C786
C18306
C00006
C80026
CC0066
C600C6
C783C6
63FF8C
60FE0C
300018
380038
1E00F0
07FFC0
01FF00
ENDCHAR
STARTCHAR invsmileface
ENCODING 2
SWIDTH 781 0
DWIDTH 25 0
BBX 23 22 1 0
VVECTOR 13 29
SWIDTH1 0 -1156
DWIDTH1 0 -37
BITMAP 
01FF00
07FFC0
1FFFF0
3FFFF8
3FFFF8
7E7CFC
7C387C
FC387E
FC387E
FE7CFE
FFFFFE
F7FFDE
F3FF9E
F9FF3E
F87C3E
7C007C
7F01FC
3FFFF8
3FFFF8
1FFFF0
07FFC0
01FF00
ENDCHAR
STARTCHAR heart
ENCODING 3
SWIDTH 781 0
DWIDTH 25 0
BBX 21 22 2 0
VVECTOR 13 29
SWIDTH1 0 -1156
DWIDTH1 0 -37
BITMAP 
3E03E0
7F8FF0
FF8FF8
FFDFF8
FFDFF8
FFFFF8
FFFFF8
7FFFF0
7FFFF0
3FFFE0
3FFFE0
1FFFC0
0FFF80
0FFF80
07FF00
03FE00
01FC00
00F800
007000
007000
002000
002000
ENDCHAR
STARTCHAR diamond
ENCODING 4
SWIDTH 781 0
DWIDTH 25 0
BBX 19 23 3 0
VVECTOR 13 29
SWIDTH1 0 -1156
DWIDTH1 0 -37
BITMAP 
004000
00E000
01F000
01F000
03F800
07FC00
0FFE00
0FFE00
1FFF00
3FFF80
7FFFC0
FFFFE0
7FFFC0
3FFF80
1FFF00
0FFE00
0FFE00
07FC00
03F800
01F000
01F000
00E000
004000
ENDCHAR
STARTCHAR club
ENCODING 5
SWIDTH 781 0
DWIDTH 25 0
BBX 23 23 1 0
VVECTOR 13 29
SWIDTH1 0 -1156
DWIDTH1 0 -37
BITMAP 
007C00
01FF00
01FF00
03FF80
03FF80
03FF80
01FF00
0DFF60
3FFFF8
7FFFFC
7FFFFC
FFFFFE
FFFFFE
FFFFFE
7FFFFC
7FD7FC
3F93F8
0E10E0
003800
003800
00FE00
0FFFE0
0FFFE0
ENDCHAR
STARTCHAR spade
ENCODING 6
SWIDTH 781 0
DWIDTH 25 0
BBX 19 23 3 0
VVECTOR 13 29
SWIDTH1 0 -1156
DWIDTH1 0 -37
BITMAP 
004000
004000
00E000
00E000
01F000
03F800
07FC00
1FFF00
3FFF80
7FFFC0
7FFFC0
FFFFE0
FFFFE0
FFFFE0
FFFFE0
7FFFC0
3F5F80
0C4600
004000
00E000
03F800
3FFF80
3FFF80
ENDCHAR
STARTCHAR bullet
ENCODING 7
SWIDTH 688 0
DWIDTH 22 0
BBX 10 10 6 6
VVECTOR 11 29
SWIDTH1 0 -1156
DWIDTH1 0 -37
BITMAP 
1E00
7F80
7F80
FFC0
FFC0
FFC0
FFC0
7F80
7F80
1E00
ENDCHAR
STARTCHAR invbullet
ENCODING 8
SWIDTH 688 0
DWIDTH 22 0
BBX 22 22 0 0
VVECTOR 11 29
SWIDTH1 0 -1156
DWIDTH1 0 -37
BITMAP 
FFFFFC
FFFFFC
FFFFFC
FFFFFC
FFFFFC
FFFFFC
FF87FC
FE01FC
FE01FC
FC00FC
FC00FC
FC00FC
FC00FC
FE01FC
FE01FC
FF87FC
FFFFFC
FFFFFC
FFFFFC
FFFFFC
FFFFFC
FFFFFC
ENDCHAR
STARTCHAR circle
ENCODING 9
SWIDTH 688 0
DWIDTH 22 0
BBX 14 14 4 4
VVECTOR 11 29
SWIDTH1 0 -1156
DWIDTH1 0 -37
BITMAP 
0FC0
3FF0
7878
6018
E01C
C00C
C00C
C00C
C00C
E01C
6018
7878
3FF0
0FC0
ENDCHAR
STARTCHAR invcircle
ENCODING 10
SWIDTH 688 0
DWIDTH 22 0
BBX 22 22 0 0
VVECTOR 11 29
SWIDTH1 0 -1156
DWIDTH1 0 -37
BITMAP 
FFFFFC
FFFFFC
FFFFFC
FFFFFC
FF03FC
FC00FC
F8787C
F9FE7C
F1FE3C
F3FF3C
F3FF3C
F3FF3C
F3FF3C
F1FE3C
F9FE7C
F8787C
FC00FC
FF03FC
FFFFFC
FFFFFC
FFFFFC
FFFFFC
ENDCHAR
STARTCHAR male
ENCODING 11
SWIDTH 812 0
DWIDTH 26 0
BBX 17 17 5 3
VVECTOR 14 29
SWIDTH1 0 -1156
DWIDTH1 0 -37
BITMAP 
003F80
000780
000780
000F80
001C80
1FB880
7FF080
606000
C03000
C03000
C03000
C03000
C03000
C03000
606000
7FE000
1F8000
ENDCHAR
STARTCHAR female
ENCODING 12
SWIDTH 812 0
DWIDTH 26 0
BBX 12 21 7 0
VVECTOR 13 29
SWIDTH1 0 -1156
DWIDTH1 0 -37
BITMAP 
1F80
7FE0
6060
C030
C030
C030
C030
C030
C030
6060
7FE0
1F80
0600
0600
0600
FFF0
FFF0
0600
0600
0600
0600
ENDCHAR
STARTCHAR musicalnote
ENCODING 13
SWIDTH 781 0
DWIDTH 25 0
BBX 15 23 5 0
VVECTOR 13 29
SWIDTH1 0 -1156
DWIDTH1 0 -37
BITMAP 
0180
0180
01C0
01E0
01F0
01F0
01F8
019C
018C
018C
0186
0186
0186
0186
0184
0184
0F88
3F80
7F80
7F80
FF00
FE00
7800
ENDCHAR
STARTCHAR musicalnotedbl
ENCODING 14
SWIDTH 781 0
DWIDTH 25 0
BBX 21 25 1 -1
VVECTOR 11 29
SWIDTH1 0 -1156
DWIDTH1 0 -37
BITMAP 
000008
000078
0003F8
001FD8
00FE18
01F018
018078
0183F8
019FD8
01FE18
01F018
018018
018018
018018
018018
018018
0180F8
0183F8
0F87F8
3F87F8
7F8FF0
7F8FE0
FF0780
FE0000
780000
ENDCHAR
STARTCHAR sun
ENCODING 15
SWIDTH 812 0
DWIDTH 26 0
BBX 24 24 1 -1
VVECTOR 13 29
SWIDTH1 0 -1156
DWIDTH1 0 -37
BITMAP 
001800
001800
001800
181818
1C7E38
0FFFF0
07C3E0
0700E0
060060
0E0070
0C0030
FC003F
FC003F
0C0030
0E0070
060060
0700E0
07C3E0
0FFFF0
1C7E38
181818
001800
001800
001800
ENDCHAR
STARTCHAR triagrt
ENCODING 16
SWIDTH 1000 0
DWIDTH 32 0
BBX 27 19 3 1
VVECTOR 17 29
SWIDTH1 0 -1156
DWIDTH1 0 -37
BITMAP 
80000000
F0000000
FE000000
FFC00000
FFF80000
FFFF0000
FFFFE000
FFFFFC00
FFFFFF80
FFFFFFE0
FFFFFF80
FFFFFC00
FFFFE000
FFFF0000
FFF80000
FFC00000
FE000000
F0000000
80000000
ENDCHAR
STARTCHAR triaglf
ENCODING 17
SWIDTH 1000 0
DWIDTH 32 0
BBX 27 19 2 1
VVECTOR 15 29
SWIDTH1 0 -1156
DWIDTH1 0 -37
BITMAP 
00000020
000001E0
00000FE0
00007FE0
0003FFE0
001FFFE0
00FFFFE0
07FFFFE0
3FFFFFE0
FFFFFFE0
3FFFFFE0
07FFFFE0
00FFFFE0
001FFFE0
0003FFE0
00007FE0
00000FE0
000001E0
00000020
ENDCHAR
STARTCHAR arrowupdn
ENCODING 18
SWIDTH 812 0
DWIDTH 26 0
BBX 10 20 8 1
VVECTOR 13 29
SWIDTH1 0 -1156
DWIDTH1 0 -37
BITMAP 
0C00
1E00
3F00
7F80
EDC0
8C40
0C00
0C00
0C00
0C00
0C00
0C00
0C00
0C00
8C40
EDC0
7F80
3F00
1E00
0C00
ENDCHAR
STARTCHAR exclamdbl
ENCODING 19
SWIDTH 531 0
DWIDTH 17 0
BBX 9 22 4 0
VVECTOR 9 29
SWIDTH1 0 -1156
DWIDTH1 0 -37
BITMAP 
C180
C180
C180
C180
C180
C180
C180
C180
C180
C180
C180
C180
C180
C180
C180
C180
0000
0000
0000
C180
C180
C180
ENDCHAR
STARTCHAR char14
ENCODING 20
SWIDTH 531 0
DWIDTH 17 0
BBX 13 26 2 -4
VVECTOR 9 29
SWIDTH1 0 -1156
DWIDTH1 0 -37
BITMAP 
1FF8
7FF8
7E60
FE60
FE60
FE60
FE60
FE60
FE60
7E60
7E60
1E60
0660
0660
0660
0660
0660
0660
0660
0660
0660
0660
0660
0660
0660
0660
ENDCHAR
STARTCHAR char15
ENCODING 21
SWIDTH 562 0
DWIDTH 18 0
BBX 14 29 2 -6
VVECTOR 9 29
SWIDTH1 0 -1156
DWIDTH1 0 -37
BITMAP 
0380
0FE0
1C70
3830
3838
3838
3C00
1E00
0F80
1FE0
39F0
7078
E038
E01C
E01C
E01C
701C
7838
3E70
1FE0
07C0
01E0
00F0
7070
7070
3070
38E0
1FC0
0700
ENDCHAR
STARTCHAR filledrect
ENCODING 22
SWIDTH 688 0
DWIDTH 22 0
BBX 18 12 2 5
VVECTOR 11 29
SWIDTH1 0 -1156
DWIDTH1 0 -37
BITMAP 
FFFFC0
FFFFC0
FFFFC0
FFFFC0
FFFFC0
FFFFC0
FFFFC0
FFFFC0
FFFFC0
FFFFC0
FFFFC0
FFFFC0
ENDCHAR
STARTCHAR arrowupdnbse
ENCODING 23
SWIDTH 812 0
DWIDTH 26 0
BBX 10 24 8 -3
VVECTOR 13 29
SWIDTH1 0 -1156
DWIDTH1 0 -37
BITMAP 
0C00
1E00
3F00
7F80
EDC0
8C40
0C00
0C00
0C00
0C00
0C00
0C00
0C00
0C00
8C40
EDC0
7F80
3F00
1E00
0C00
0000
0000
FFC0
FFC0
ENDCHAR
STARTCHAR arrowup
ENCODING 24
SWIDTH 812 0
DWIDTH 26 0
BBX 10 21 8 0
VVECTOR 13 29
SWIDTH1 0 -1156
DWIDTH1 0 -37
BITMAP 
0C00
1E00
3F00
7F80
EDC0
8C40
0C00
0C00
0C00
0C00
0C00
0C00
0C00
0C00
0C00
0C00
0C00
0C00
0C00
0C00
0C00
ENDCHAR
STARTCHAR arrowdown
ENCODING 25
SWIDTH 812 0
DWIDTH 26 0
BBX 10 21 8 1
VVECTOR 13 29
SWIDTH1 0 -1156
DWIDTH1 0 -37
BITMAP 
0C00
0C00
0C00
0C00
0C00
0C00
0C00
0C00
0C00
0C00
0C00
0C00
0C00
0C00
0C00
8C40
EDC0
7F80
3F00
1E00
0C00
ENDCHAR
STARTCHAR arrowright
ENCODING 26
SWIDTH 812 0
DWIDTH 26 0
BBX 21 10 3 6
VVECTOR 14 29
SWIDTH1 0 -1156
DWIDTH1 0 -37
BITMAP 
000180
0000C0
0000E0
000070
FFFFF8
FFFFF8
000070
0000E0
0000C0
000180
ENDCHAR
STARTCHAR arrowleft
ENCODING 27
SWIDTH 812 0
DWIDTH 26 0
BBX 21 10 2 6
VVECTOR 12 29
SWIDTH1 0 -1156
DWIDTH1 0 -37
BITMAP 
0C0000
180000
380000
700000
FFFFF8
FFFFF8
700000
380000
180000
0C0000
ENDCHAR
STARTCHAR orthogonal
ENCODING 28
SWIDTH 594 0
DWIDTH 19 0
BBX 15 10 2 0
VVECTOR 10 29
SWIDTH1 0 -1156
DWIDTH1 0 -37
BITMAP 
C000
C000
C000
C000
C000
C000
C000
C000
FFFE
FFFE
ENDCHAR
STARTCHAR arrowboth
ENCODING 29
SWIDTH 812 0
DWIDTH 26 0
BBX 22 10 2 6
VVECTOR 13 29
SWIDTH1 0 -1156
DWIDTH1 0 -37
BITMAP 
0C00C0
180060
380070
700038
FFFFFC
FFFFFC
700038
380070
180060
0C00C0
ENDCHAR
STARTCHAR triagup
ENCODING 30
SWIDTH 781 0
DWIDTH 25 0
BBX 17 17 4 3
VVECTOR 13 29
SWIDTH1 0 -1156
DWIDTH1 0 -37
BITMAP 
008000
008000
01C000
01C000
03E000
03E000
07F000
07F000
0FF800
0FF800
1FFC00
1FFC00
3FFE00
3FFE00
7FFF00
7FFF00
FFFF80
ENDCHAR
STARTCHAR triagdn
ENCODING 31
SWIDTH 781 0
DWIDTH 25 0
BBX 17 17 4 2
VVECTOR 13 29
SWIDTH1 0 -1156
DWIDTH1 0 -37
BITMAP 
FFFF80
7FFF00
7FFF00
3FFE00
3FFE00
1FFC00
1FFC00
0FF800
0FF800
07F000
07F000
03E000
03E000
01C000
01C000
008000
008000
ENDCHAR
STARTCHAR space
ENCODING 32
SWIDTH 281 0
DWIDTH 9 0
BBX 0 0 9 29
VVECTOR 14 29
SWIDTH1 0 -1156
DWIDTH1 0 -37
BITMAP 
ENDCHAR
STARTCHAR exclam
ENCODING 33
SWIDTH 281 0
DWIDTH 9 0
BBX 3 23 3 0
VVECTOR 5 29
SWIDTH1 0 -1156
DWIDTH1 0 -37
BITMAP 
E0
E0
E0
E0
E0
E0
E0
E0
E0
E0
E0
E0
E0
E0
40
40
40
00
00
00
E0
E0
E0
ENDCHAR
STARTCHAR quotedbl
ENCODING 34
SWIDTH 344 0
DWIDTH 11 0
BBX 9 8 1 15
VVECTOR 6 29
SWIDTH1 0 -1156
DWIDTH1 0 -37
BITMAP 
E380
E380
E380
E380
E380
4100
4100
4100
ENDCHAR
STARTCHAR numbersign
ENCODING 35
SWIDTH 562 0
DWIDTH 18 0
BBX 16 23 1 0
VVECTOR 9 29
SWIDTH1 0 -1156
DWIDTH1 0 -37
BITMAP 
030C
030C
030C
030C
071C
0618
7FFF
7FFF
0618
0E38
0C30
0C30
0C30
1C70
1860
FFFE
FFFE
1860
38E0
30C0
30C0
30C0
30C0
ENDCHAR
STARTCHAR dollar
ENCODING 36
SWIDTH 562 0
DWIDTH 18 0
BBX 16 28 1 -3
VVECTOR 9 29
SWIDTH1 0 -1156
DWIDTH1 0 -37
BITMAP 
0180
0180
07E0
1FF8
3DBC
399C
718E
718E
7180
3980
3D80
1F80
0FE0
03F8
01FC
019E
018E
0187
E187
E187
E187
718E
799E
3FFC
0FF0
0180
0180
0180
ENDCHAR
STARTCHAR percent
ENCODING 37
SWIDTH 875 0
DWIDTH 28 0
BBX 24 23 2 0
VVECTOR 14 29
SWIDTH1 0 -1156
DWIDTH1 0 -37
BITMAP 
1E00E0
7F80C0
6181C0
C0C180
C0C380
C0C300
C0C700
618600
7F8E00
1E0C00
001C00
001800
003800
003078
0071FE
006186
00E303
00C303
01C303
018303
038186
0301FE
070078
ENDCHAR
STARTCHAR ampersand
ENCODING 38
SWIDTH 688 0
DWIDTH 22 0
BBX 20 23 2 0
VVECTOR 13 29
SWIDTH1 0 -1156
DWIDTH1 0 -37
BITMAP 
030000
0FC000
1FE000
1CE000
387000
387000
387000
1CE000
1FE000
0FC000
1F8000
3FC000
79E380
70F380
F07F00
E03F00
E01E00
E00E00
F01F00
783F80
7FFBC0
3FF1E0
0FC0F0
ENDCHAR
STARTCHAR quotesingle
ENCODING 39
SWIDTH 219 0
DWIDTH 7 0
BBX 3 8 2 15
VVECTOR 4 29
SWIDTH1 0 -1156
DWIDTH1 0 -37
BITMAP 
E0
E0
E0
E0
E0
40
40
40
ENDCHAR
STARTCHAR parenleft
ENCODING 40
SWIDTH 344 0
DWIDTH 11 0
BBX 7 30 3 -7
VVECTOR 8 29
SWIDTH1 0 -1156
DWIDTH1 0 -37
BITMAP 
06
0E
1C
38
38
70
70
70
E0
E0
E0
E0
E0
E0
E0
E0
E0
E0
E0
E0
E0
E0
70
70
70
38
38
1C
0E
06
ENDCHAR
STARTCHAR parenright
ENCODING 41
SWIDTH 344 0
DWIDTH 11 0
BBX 7 30 1 -7
VVECTOR 4 29
SWIDTH1 0 -1156
DWIDTH1 0 -37
BITMAP 
C0
E0
70
38
38
1C
1C
1C
0E
0E
0E
0E
0E
0E
0E
0E
0E
0E
0E
0E
0E
0E
1C
1C
1C
38
38
70
E0
C0
ENDCHAR
STARTCHAR asterisk
ENCODING 42
SWIDTH 375 0
DWIDTH 12 0
BBX 10 9 1 14
VVECTOR 6 29
SWIDTH1 0 -1156
DWIDTH1 0 -37
BITMAP 
0C00
0C00
6D80
FFC0
3F00
1E00
3F00
7380
2100
ENDCHAR
STARTCHAR plus
ENCODING 43
SWIDTH 594 0
DWIDTH 19 0
BBX 17 19 1 2
VVECTOR 10 29
SWIDTH1 0 -1156
DWIDTH1 0 -37
BITMAP 
01C000
01C000
01C000
01C000
01C000
01C000
01C000
01C000
FFFF80
FFFF80
FFFF80
01C000
01C000
01C000
01C000
01C000
01C000
01C000
01C000
ENDCHAR
STARTCHAR comma
ENCODING 44
SWIDTH 281 0
DWIDTH 9 0
BBX 3 6 3 -3
VVECTOR 5 29
SWIDTH1 0 -1156
DWIDTH1 0 -37
BITMAP 
E0
E0
E0
20
40
80
ENDCHAR
STARTCHAR hyphen
ENCODING 45
SWIDTH 313 0
DWIDTH 10 0
BBX 8 2 1 6
VVECTOR 5 29
SWIDTH1 0 -1156
DWIDTH1 0 -37
BITMAP 
FF
FF
ENDCHAR
STARTCHAR period
ENCODING 46
SWIDTH 281 0
DWIDTH 9 0
BBX 3 3 3 0
VVECTOR 5 29
SWIDTH1 0 -1156
DWIDTH1 0 -37
BITMAP 
E0
E0
E0
ENDCHAR
STARTCHAR slash
ENCODING 47
SWIDTH 281 0
DWIDTH 9 0
BBX 9 23 0 0
VVECTOR 5 29
SWIDTH1 0 -1156
DWIDTH1 0 -37
BITMAP 
0380
0380
0380
0700
0700
0700
0E00
0E00
0E00
1C00
1C00
1C00
1C00
3800
3800
3800
7000
7000
7000
7000
E000
E000
E000
ENDCHAR
STARTCHAR zero
ENCODING 48
SWIDTH 562 0
DWIDTH 18 0
BBX 14 23 2 0
VVECTOR 9 29
SWIDTH1 0 -1156
DWIDTH1 0 -37
BITMAP 
0780
1FE0
3FF0
7878
7038
F03C
E01C
E01C
E01C
E01C
E01C
E01C
E01C
E01C
E01C
E01C
E01C
F03C
7038
7878
3FF0
1FE0
0780
ENDCHAR
STARTCHAR one
ENCODING 49
SWIDTH 500 0
DWIDTH 16 0
BBX 6 23 4 0
VVECTOR 6 29
SWIDTH1 0 -1156
DWIDTH1 0 -37
BITMAP 
0C
0C
1C
3C
FC
FC
FC
1C
1C
1C
1C
1C
1C
1C
1C
1C
1C
1C
1C
1C
1C
1C
1C
ENDCHAR
STARTCHAR two
ENCODING 50
SWIDTH 562 0
DWIDTH 18 0
BBX 16 23 1 0
VVECTOR 9 29
SWIDTH1 0 -1156
DWIDTH1 0 -37
BITMAP 
03C0
0FF0
1FF8
3C3C
381C
700E
700E
000E
000E
001C
003C
00F8
03F0
07C0
0F00
1E00
3C00
3800
7000
7000
FFFF
FFFF
FFFF
ENDCHAR
STARTCHAR three
ENCODING 51
SWIDTH 562 0
DWIDTH 18 0
BBX 16 23 1 0
VVECTOR 9 29
SWIDTH1 0 -1156
DWIDTH1 0 -37
BITMAP 
03C0
0FF0
1FF8
3C3C
381C
700E
700E
000E
001C
01FC
01F8
01FC
001E
000E
0007
0007
E007
E007
700E
781E
3FFC
1FF8
07E0
ENDCHAR
STARTCHAR four
ENCODING 52
SWIDTH 562 0
DWIDTH 18 0
BBX 16 23 1 0
VVECTOR 9 29
SWIDTH1 0 -1156
DWIDTH1 0 -37
BITMAP 
0078
00F8
00F8
01F8
03F8
03B8
07B8
0F38
0E38
1E38
3C38
3838
7838
7038
F038
FFFF
FFFF
FFFF
0038
0038
0038
0038
0038
ENDCHAR
STARTCHAR five
ENCODING 53
SWIDTH 562 0
DWIDTH 18 0
BBX 16 23 1 0
VVECTOR 9 29
SWIDTH1 0 -1156
DWIDTH1 0 -37
BITMAP 
1FFE
1FFE
1FFE
1C00
3800
3800
3800
3BF0
7FFC
7FFE
781E
700F
0007
0007
0007
0007
E007
E007
700E
781E
3FFC
1FF8
07E0
ENDCHAR
STARTCHAR six
ENCODING 54
SWIDTH 562 0
DWIDTH 18 0
BBX 15 23 2 0
VVECTOR 10 29
SWIDTH1 0 -1156
DWIDTH1 0 -37
BITMAP 
07C0
1FF0
3FF8
7C78
701C
F01C
E000
E000
E3C0
EFF0
FFF8
FC7C
F01C
F01E
E00E
E00E
E00E
F01E
701C
7C7C
3FF8
1FF0
07C0
ENDCHAR
STARTCHAR seven
ENCODING 55
SWIDTH 562 0
DWIDTH 18 0
BBX 16 23 1 0
VVECTOR 9 29
SWIDTH1 0 -1156
DWIDTH1 0 -37
BITMAP 
FFFF
FFFF
FFFF
000F
001E
003C
0038
0078
0070
00F0
00E0
01E0
01C0
01C0
03C0
0380
0380
0780
0700
0700
0700
0700
0700
ENDCHAR
STARTCHAR eight
ENCODING 56
SWIDTH 562 0
DWIDTH 18 0
BBX 16 23 1 0
VVECTOR 9 29
SWIDTH1 0 -1156
DWIDTH1 0 -37
BITMAP 
03C0
0FF0
1FF8
3C3C
381C
700E
700E
700E
381C
3FFC
1FF8
3FFC
781E
700E
E007
E007
E007
E007
700E
781E
3FFC
1FF8
07E0
ENDCHAR
STARTCHAR nine
ENCODING 57
SWIDTH 562 0
DWIDTH 18 0
BBX 15 23 1 0
VVECTOR 8 29
SWIDTH1 0 -1156
DWIDTH1 0 -37
BITMAP 
07C0
1FF0
3FF8
7C7C
701C
F01E
E00E
E00E
E00E
F01E
701E
7C7E
3FFE
1FEE
078E
000E
000E
701E
701C
3C7C
3FF8
1FF0
07C0
ENDCHAR
STARTCHAR colon
ENCODING 58
SWIDTH 281 0
DWIDTH 9 0
BBX 3 16 3 0
VVECTOR 5 29
SWIDTH1 0 -1156
DWIDTH1 0 -37
BITMAP 
E0
E0
E0
00
00
00
00
00
00
00
00
00
00
E0
E0
E0
ENDCHAR
STARTCHAR semicolon
ENCODING 59
SWIDTH 281 0
DWIDTH 9 0
BBX 3 19 3 -3
VVECTOR 5 29
SWIDTH1 0 -1156
DWIDTH1 0 -37
BITMAP 
E0
E0
E0
00
00
00
00
00
00
00
00
00
00
E0
E0
E0
20
40
80
ENDCHAR
STARTCHAR less
ENCODING 60
SWIDTH 594 0
DWIDTH 19 0
BBX 16 16 1 3
VVECTOR 9 29
SWIDTH1 0 -1156
DWIDTH1 0 -37
BITMAP 
0003
000F
003F
00FC
03F0
0FC0
3F00
FC00
FC00
3F00
0FC0
03F0
00FC
003F
000F
0003
ENDCHAR
STARTCHAR equal
ENCODING 61
SWIDTH 594 0
DWIDTH 19 0
BBX 17 9 1 7
VVECTOR 10 29
SWIDTH1 0 -1156
DWIDTH1 0 -37
BITMAP 
FFFF80
FFFF80
FFFF80
000000
000000
000000
FFFF80
FFFF80
FFFF80
ENDCHAR
STARTCHAR greater
ENCODING 62
SWIDTH 594 0
DWIDTH 19 0
BBX 16 16 2 3
VVECTOR 11 29
SWIDTH1 0 -1156
DWIDTH1 0 -37
BITMAP 
C000
F000
FC00
3F00
0FC0
03F0
00FC
003F
003F
00FC
03F0
0FC0
3F00
FC00
F000
C000
ENDCHAR
STARTCHAR question
ENCODING 63
SWIDTH 531 0
DWIDTH 17 0
BBX 15 23 1 0
VVECTOR 9 29
SWIDTH1 0 -1156
DWIDTH1 0 -37
BITMAP 
07C0
1FF0
3FF8
783C
701C
E00E
E00E
000E
000E
001C
003C
0078
00F0
01E0
01C0
0380
0380
0000
0000
0000
0380
0380
0380
ENDCHAR
STARTCHAR at
ENCODING 64
SWIDTH 938 0
DWIDTH 30 0
BBX 28 26 1 -3
VVECTOR 15 29
SWIDTH1 0 -1156
DWIDTH1 0 -37
BITMAP 
001FC000
00FFF800
03E03E00
07000700
0E000380
1C0001C0
380780C0
301FD860
60387860
60603030
60603030
C0C03030
C0C06030
C1806030
C1806060
C180C060
6181C0C0
60C3E1C0
607F7F80
303E3E00
38000000
1C000000
0F000000
07C03800
01FFF000
003FC000
ENDCHAR
STARTCHAR A
ENCODING 65
SWIDTH 688 0
DWIDTH 22 0
BBX 21 23 1 0
VVECTOR 12 29
SWIDTH1 0 -1156
DWIDTH1 0 -37
BITMAP 
00F800
00F800
01FC00
01FC00
01DC00
03DE00
038E00
038E00
078F00
070700
0F0780
0E0380
0E0380
1E03C0
1C01C0
1FFFC0
3FFFE0
3FFFE0
7800F0
700070
700070
F00078
E00038
ENDCHAR
STARTCHAR B
ENCODING 66
SWIDTH 656 0
DWIDTH 21 0
BBX 17 23 3 0
VVECTOR 13 29
SWIDTH1 0 -1156
DWIDTH1 0 -37
BITMAP 
FFF000
FFFC00
FFFE00
E00E00
E00700
E00700
E00700
E00700
E00E00
FFFE00
FFFC00
FFFE00
E00F00
E00700
E00380
E00380
E00380
E00380
E00780
E00F00
FFFF00
FFFE00
FFF800
ENDCHAR
STARTCHAR C
ENCODING 67
SWIDTH 719 0
DWIDTH 23 0
BBX 21 23 2 0
VVECTOR 14 29
SWIDTH1 0 -1156
DWIDTH1 0 -37
BITMAP 
00FC00
07FF80
0FFFC0
1F03E0
3C00F0
780078
700038
700038
E00000
E00000
E00000
E00000
E00000
E00000
E00000
700038
700038
780078
3C00F0
1F03E0
0FFFC0
07FF80
00FC00
ENDCHAR
STARTCHAR D
ENCODING 68
SWIDTH 719 0
DWIDTH 23 0
BBX 19 23 3 0
VVECTOR 14 29
SWIDTH1 0 -1156
DWIDTH1 0 -37
BITMAP 
FFE000
FFFC00
FFFE00
E01F00
E00780
E003C0
E001C0
E001C0
E000E0
E000E0
E000E0
E000E0
E000E0
E000E0
E000E0
E001C0
E001C0
E003C0
E00780
E01F00
FFFE00
FFFC00
FFE000
ENDCHAR
STARTCHAR E
ENCODING 69
SWIDTH 656 0
DWIDTH 21 0
BBX 17 23 3 0
VVECTOR 13 29
SWIDTH1 0 -1156
DWIDTH1 0 -37
BITMAP 
FFFF80
FFFF80
FFFF80
E00000
E00000
E00000
E00000
E00000
E00000
FFFE00
FFFE00
FFFE00
E00000
E00000
E00000
E00000
E00000
E00000
E00000
E00000
FFFF80
FFFF80
FFFF80
ENDCHAR
STARTCHAR F
ENCODING 70
SWIDTH 625 0
DWIDTH 20 0
BBX 17 23 3 0
VVECTOR 13 29
SWIDTH1 0 -1156
DWIDTH1 0 -37
BITMAP 
FFFF80
FFFF80
FFFF80
E00000
E00000
E00000
E00000
E00000
E00000
FFFC00
FFFC00
FFFC00
E00000
E00000
E00000
E00000
E00000
E00000
E00000
E00000
E00000
E00000
E00000
ENDCHAR
STARTCHAR G
ENCODING 71
SWIDTH 781 0
DWIDTH 25 0
BBX 21 23 2 0
VVECTOR 13 29
SWIDTH1 0 -1156
DWIDTH1 0 -37
BITMAP 
00FC00
07FF80
0FFFC0
1F03E0
3C00F0
780078
700038
700038
E00000
E00000
E00000
E00FF8
E00FF8
E00FF8
E00038
700038
700078
780078
3C00F8
1F03F8
0FFFB8
07FF38
00FC38
ENDCHAR
STARTCHAR H
ENCODING 72
SWIDTH 719 0
DWIDTH 23 0
BBX 18 23 3 0
VVECTOR 13 29
SWIDTH1 0 -1156
DWIDTH1 0 -37
BITMAP 
E001C0
E001C0
E001C0
E001C0
E001C0
E001C0
E001C0
E001C0
E001C0
FFFFC0
FFFFC0
FFFFC0
E001C0
E001C0
E001C0
E001C0
E001C0
E001C0
E001C0
E001C0
E001C0
E001C0
E001C0
ENDCHAR
STARTCHAR I
ENCODING 73
SWIDTH 250 0
DWIDTH 8 0
BBX 3 23 3 0
VVECTOR 5 29
SWIDTH1 0 -1156
DWIDTH1 0 -37
BITMAP 
E0
E0
E0
E0
E0
E0
E0
E0
E0
E0
E0
E0
E0
E0
E0
E0
E0
E0
E0
E0
E0
E0
E0
ENDCHAR
STARTCHAR J
ENCODING 74
SWIDTH 500 0
DWIDTH 16 0
BBX 13 23 1 0
VVECTOR 7 29
SWIDTH1 0 -1156
DWIDTH1 0 -37
BITMAP 
0038
0038
0038
0038
0038
0038
0038
0038
0038
0038
0038
0038
0038
0038
E038
E038
E038
E038
F078
78F0
7FF0
3FE0
0F80
ENDCHAR
STARTCHAR K
ENCODING 75
SWIDTH 656 0
DWIDTH 21 0
BBX 19 23 2 0
VVECTOR 13 29
SWIDTH1 0 -1156
DWIDTH1 0 -37
BITMAP 
E00780
E00F00
E01E00
E03C00
E07800
E0F000
E1E000
E3C000
E78000
EF0000
FF0000
FF8000
FBC000
F1E000
E0F000
E07800
E03C00
E01E00
E00F00
E00780
E003C0
E001E0
E000E0
ENDCHAR
STARTCHAR L
ENCODING 76
SWIDTH 562 0
DWIDTH 18 0
BBX 15 23 3 0
VVECTOR 12 29
SWIDTH1 0 -1156
DWIDTH1 0 -37
BITMAP 
E000
E000
E000
E000
E000
E000
E000
E000
E000
E000
E000
E000
E000
E000
E000
E000
E000
E000
E000
E000
FFFE
FFFE
FFFE
ENDCHAR
STARTCHAR M
ENCODING 77
SWIDTH 812 0
DWIDTH 26 0
BBX 21 23 3 0
VVECTOR 14 29
SWIDTH1 0 -1156
DWIDTH1 0 -37
BITMAP 
F00078
F800F8
F800F8
F800F8
FC01F8
FC01F8
FC01F8
FE03F8
EE03B8
EE03B8
EF07B8
E70738
E70738
E78F38
E38E38
E38E38
E3DE38
E1DC38
E1DC38
E1FC38
E0F838
E0F838
E0F838
ENDCHAR
STARTCHAR N
ENCODING 78
SWIDTH 750 0
DWIDTH 24 0
BBX 19 23 3 0
VVECTOR 13 29
SWIDTH1 0 -1156
DWIDTH1 0 -37
BITMAP 
F000E0
F800E0
F800E0
FC00E0
FE00E0
EE00E0
EF00E0
E780E0
E380E0
E3C0E0
E1E0E0
E0E0E0
E0F0E0
E078E0
E038E0
E03CE0
E01EE0
E00EE0
E00FE0
E007E0
E003E0
E003E0
E001E0
ENDCHAR
STARTCHAR O
ENCODING 79
SWIDTH 781 0
DWIDTH 25 0
BBX 22 23 2 0
VVECTOR 14 29
SWIDTH1 0 -1156
DWIDTH1 0 -37
BITMAP 
00FC00
07FF80
0FFFC0
1F03E0
3C00F0
780078
700038
700038
E0001C
E0001C
E0001C
E0001C
E0001C
E0001C
E0001C
700038
700038
780078
3C00F0
1F03E0
0FFFC0
07FF80
00FC00
ENDCHAR
STARTCHAR P
ENCODING 80
SWIDTH 656 0
DWIDTH 21 0
BBX 17 23 3 0
VVECTOR 13 29
SWIDTH1 0 -1156
DWIDTH1 0 -37
BITMAP 
FFF800
FFFE00
FFFF00
E00F00
E00780
E00380
E00380
E00380
E00380
E00780
E00F00
FFFF00
FFFE00
FFF800
E00000
E00000
E00000
E00000
E00000
E00000
E00000
E00000
E00000
ENDCHAR
STARTCHAR Q
ENCODING 81
SWIDTH 781 0
DWIDTH 25 0
BBX 22 23 2 0
VVECTOR 14 29
SWIDTH1 0 -1156
DWIDTH1 0 -37
BITMAP 
00FC00
07FF80
0FFFC0
1F03E0
3C00F0
780078
700038
700038
E0001C
E0001C
E0001C
E0001C
E0001C
E0001C
E0031C
7007B8
7003F8
7801F8
3C00F0
1F03F8
0FFFFC
07FF9C
00FC08
ENDCHAR
STARTCHAR R
ENCODING 82
SWIDTH 688 0
DWIDTH 22 0
BBX 18 23 3 0
VVECTOR 13 29
SWIDTH1 0 -1156
DWIDTH1 0 -37
BITMAP 
FFF800
FFFE00
FFFF00
E00700
E00380
E00380
E00380
E00380
E00780
E00F00
FFFF00
FFFE00
FFFF00
E00F00
E00780
E00380
E00380
E00380
E00380
E00380
E00380
E003C0
E001C0
ENDCHAR
STARTCHAR S
ENCODING 83
SWIDTH 656 0
DWIDTH 21 0
BBX 19 23 1 0
VVECTOR 11 29
SWIDTH1 0 -1156
DWIDTH1 0 -37
BITMAP 
07FC00
1FFF00
3FFF80
3C0780
7803C0
7001C0
700000
780000
3C0000
3FC000
1FFE00
07FF80
007FC0
0003C0
0001E0
0000E0
E000E0
F000E0
7001E0
7C03C0
3FFFC0
1FFF80
07FE00
ENDCHAR
STARTCHAR T
ENCODING 84
SWIDTH 625 0
DWIDTH 20 0
BBX 19 23 1 0
VVECTOR 11 29
SWIDTH1 0 -1156
DWIDTH1 0 -37
BITMAP 
FFFFE0
FFFFE0
FFFFE0
00E000
00E000
00E000
00E000
00E000
00E000
00E000
00E000
00E000
00E000
00E000
00E000
00E000
00E000
00E000
00E000
00E000
00E000
00E000
00E000
ENDCHAR
STARTCHAR U
ENCODING 85
SWIDTH 719 0
DWIDTH 23 0
BBX 18 23 3 0
VVECTOR 13 29
SWIDTH1 0 -1156
DWIDTH1 0 -37
BITMAP 
E001C0
E001C0
E001C0
E001C0
E001C0
E001C0
E001C0
E001C0
E001C0
E001C0
E001C0
E001C0
E001C0
E001C0
E001C0
E001C0
E001C0
F003C0
700380
7C0F80
3FFF00
1FFE00
07F800
ENDCHAR
STARTCHAR V
ENCODING 86
SWIDTH 688 0
DWIDTH 22 0
BBX 21 23 1 0
VVECTOR 12 29
SWIDTH1 0 -1156
DWIDTH1 0 -37
BITMAP 
E00038
F00078
700070
700070
7800F0
3800E0
3C01E0
1C01C0
1C01C0
1E03C0
0E0380
0E0380
0F0780
070700
078F00
038E00
038E00
03DE00
01DC00
01FC00
01FC00
00F800
00F800
ENDCHAR
STARTCHAR W
ENCODING 87
SWIDTH 969 0
DWIDTH 31 0
BBX 30 23 1 0
VVECTOR 17 29
SWIDTH1 0 -1156
DWIDTH1 0 -37
BITMAP 
E007801C
E007801C
E007801C
F00FC03C
700FC038
700FC038
781FE078
381CE070
381CE070
3C3CF0F0
1C3870E0
1C3870E0
1E7879E0
0E7039C0
0E7039C0
0FF03FC0
07E01F80
07E01F80
07E01F80
03C00F00
03C00F00
03C00F00
03C00F00
ENDCHAR
STARTCHAR X
ENCODING 88
SWIDTH 656 0
DWIDTH 21 0
BBX 20 23 1 0
VVECTOR 12 29
SWIDTH1 0 -1156
DWIDTH1 0 -37
BITMAP 
7000E0
7801E0
3801C0
3C03C0
1E0780
0F0F00
070E00
079E00
03FC00
01F800
00F000
00F000
01F800
03FC00
039C00
079E00
0F0F00
1E0780
1C0380
3C03C0
7801E0
F000F0
E00070
ENDCHAR
STARTCHAR Y
ENCODING 89
SWIDTH 688 0
DWIDTH 22 0
BBX 21 23 1 0
VVECTOR 12 29
SWIDTH1 0 -1156
DWIDTH1 0 -37
BITMAP 
E00038
F00078
7800F0
3C01E0
1C01C0
1E03C0
0F0780
078F00
038E00
03DE00
01FC00
00F800
007000
007000
007000
007000
007000
007000
007000
007000
007000
007000
007000
ENDCHAR
STARTCHAR Z
ENCODING 90
SWIDTH 625 0
DWIDTH 20 0
BBX 19 23 1 0
VVECTOR 11 29
SWIDTH1 0 -1156
DWIDTH1 0 -37
BITMAP 
7FFFC0
7FFFC0
7FFFC0
0003C0
000780
000F00
001E00
003C00
007800
007000
00F000
01E000
03C000
078000
070000
0F0000
1E0000
3C0000
780000
F00000
FFFFE0
FFFFE0
FFFFE0
ENDCHAR
STARTCHAR bracketleft
ENCODING 91
SWIDTH 281 0
DWIDTH 9 0
BBX 6 30 2 -7
VVECTOR 6 29
SWIDTH1 0 -1156
DWIDTH1 0 -37
BITMAP 
FC
FC
FC
E0
E0
E0
E0
E0
E0
E0
E0
E0
E0
E0
E0
E0
E0
E0
E0
E0
E0
E0
E0
E0
E0
E0
E0
FC
FC
FC
ENDCHAR
STARTCHAR backslash
ENCODING 92
SWIDTH 281 0
DWIDTH 9 0
BBX 9 23 0 0
VVECTOR 5 29
SWIDTH1 0 -1156
DWIDTH1 0 -37
BITMAP 
E000
E000
E000
7000
7000
7000
7000
3800
3800
3800
1C00
1C00
1C00
1C00
0E00
0E00
0E00
0700
0700
0700
0380
0380
0380
ENDCHAR
STARTCHAR bracketright
ENCODING 93
SWIDTH 281 0
DWIDTH 9 0
BBX 6 30 1 -7
VVECTOR 4 29
SWIDTH1 0 -1156
DWIDTH1 0 -37
BITMAP 
FC
FC
FC
1C
1C
1C
1C
1C
1C
1C
1C
1C
1C
1C
1C
1C
1C
1C
1C
1C
1C
1C
1C
1C
1C
1C
1C
FC
FC
FC
ENDCHAR
STARTCHAR asciicircum
ENCODING 94
SWIDTH 344 0
DWIDTH 11 0
BBX 11 4 0 24
VVECTOR 6 29
SWIDTH1 0 -1156
DWIDTH1 0 -37
BITMAP 
1F00
3B80
71C0
E0E0
ENDCHAR
STARTCHAR underscore
ENCODING 95
SWIDTH 562 0
DWIDTH 18 0
BBX 18 2 0 -3
VVECTOR 9 29
SWIDTH1 0 -1156
DWIDTH1 0 -37
BITMAP 
FFFFC0
FFFFC0
ENDCHAR
STARTCHAR grave
ENCODING 96
SWIDTH 344 0
DWIDTH 11 0
BBX 7 4 2 19
VVECTOR 6 29
SWIDTH1 0 -1156
DWIDTH1 0 -37
BITMAP 
F8
3C
0E
02
ENDCHAR
STARTCHAR a
ENCODING 97
SWIDTH 562 0
DWIDTH 18 0
BBX 17 16 1 0
VVECTOR 10 29
SWIDTH1 0 -1156
DWIDTH1 0 -37
BITMAP 
0FF000
3FFC00
381C00
700E00
000E00
001E00
0FFE00
3FEE00
780E00
700E00
E00E00
E00E00
E01E00
703F00
7FF780
1FC380
ENDCHAR
STARTCHAR b
ENCODING 98
SWIDTH 562 0
DWIDTH 18 0
BBX 15 23 2 0
VVECTOR 10 29
SWIDTH1 0 -1156
DWIDTH1 0 -37
BITMAP 
E000
E000
E000
E000
E000
E000
E000
E7E0
FFF8
FC7C
F01C
F01E
E00E
E00E
E00E
E00E
E00E
E00E
F01E
F01C
FC7C
FFF8
E7E0
ENDCHAR
STARTCHAR c
ENCODING 99
SWIDTH 500 0
DWIDTH 16 0
BBX 15 16 1 0
VVECTOR 9 29
SWIDTH1 0 -1156
DWIDTH1 0 -37
BITMAP 
0FF0
3FFC
7C3E
700E
F00E
E000
E000
E000
E000
E000
E000
F00E
700E
7C3E
3FFC
0FF0
ENDCHAR
STARTCHAR d
ENCODING 100
SWIDTH 562 0
DWIDTH 18 0
BBX 15 23 1 0
VVECTOR 8 29
SWIDTH1 0 -1156
DWIDTH1 0 -37
BITMAP 
000E
000E
000E
000E
000E
000E
000E
0FCE
3FFE
7C7E
701E
F01E
E00E
E00E
E00E
E00E
E00E
E00E
F01E
701E
7C7E
3FFE
0FCE
ENDCHAR
STARTCHAR e
ENCODING 101
SWIDTH 531 0
DWIDTH 17 0
BBX 15 16 1 0
VVECTOR 9 29
SWIDTH1 0 -1156
DWIDTH1 0 -37
BITMAP 
0FE0
3FF8
7C7C
701C
F01E
E00E
FFFE
FFFE
E000
E000
E000
F01E
701C
7C7C
3FF8
0FE0
ENDCHAR
STARTCHAR f
ENCODING 102
SWIDTH 281 0
DWIDTH 9 0
BBX 9 23 0 0
VVECTOR 5 29
SWIDTH1 0 -1156
DWIDTH1 0 -37
BITMAP 
0380
0F80
0E00
1C00
1C00
1C00
1C00
FF80
FF80
1C00
1C00
1C00
1C00
1C00
1C00
1C00
1C00
1C00
1C00
1C00
1C00
1C00
1C00
ENDCHAR
STARTCHAR g
ENCODING 103
SWIDTH 562 0
DWIDTH 18 0
BBX 15 23 1 -7
VVECTOR 8 29
SWIDTH1 0 -1156
DWIDTH1 0 -37
BITMAP 
0FCE
3FFE
7C7E
701E
F01E
E00E
E00E
E00E
E00E
E00E
E00E
F01E
701E
7C7E
3FFE
0FCE
000E
000E
701C
701C
3C78
1FF0
07C0
ENDCHAR
STARTCHAR h
ENCODING 104
SWIDTH 562 0
DWIDTH 18 0
BBX 14 23 2 0
VVECTOR 9 29
SWIDTH1 0 -1156
DWIDTH1 0 -37
BITMAP 
E000
E000
E000
E000
E000
E000
E000
E7E0
EFF8
F878
F03C
E01C
E01C
E01C
E01C
E01C
E01C
E01C
E01C
E01C
E01C
E01C
E01C
ENDCHAR
STARTCHAR i
ENCODING 105
SWIDTH 219 0
DWIDTH 7 0
BBX 3 23 2 0
VVECTOR 4 29
SWIDTH1 0 -1156
DWIDTH1 0 -37
BITMAP 
E0
E0
E0
00
00
00
00
E0
E0
E0
E0
E0
E0
E0
E0
E0
E0
E0
E0
E0
E0
E0
E0
ENDCHAR
STARTCHAR j
ENCODING 106
SWIDTH 219 0
DWIDTH 7 0
BBX 5 30 0 -7
VVECTOR 2 29
SWIDTH1 0 -1156
DWIDTH1 0 -37
BITMAP 
38
38
38
00
00
00
00
38
38
38
38
38
38
38
38
38
38
38
38
38
38
38
38
38
38
38
38
78
F0
E0
ENDCHAR
STARTCHAR k
ENCODING 107
SWIDTH 500 0
DWIDTH 16 0
BBX 14 23 2 0
VVECTOR 10 29
SWIDTH1 0 -1156
DWIDTH1 0 -37
BITMAP 
E000
E000
E000
E000
E000
E000
E000
E070
E0E0
E1C0
E380
E700
EE00
FE00
FF00
F780
E3C0
E1C0
E1E0
E0F0
E078
E038
E03C
ENDCHAR
STARTCHAR l
ENCODING 108
SWIDTH 219 0
DWIDTH 7 0
BBX 3 23 2 0
VVECTOR 4 29
SWIDTH1 0 -1156
DWIDTH1 0 -37
BITMAP 
E0
E0
E0
E0
E0
E0
E0
E0
E0
E0
E0
E0
E0
E0
E0
E0
E0
E0
E0
E0
E0
E0
E0
ENDCHAR
STARTCHAR m
ENCODING 109
SWIDTH 844 0
DWIDTH 27 0
BBX 23 16 2 0
VVECTOR 14 29
SWIDTH1 0 -1156
DWIDTH1 0 -37
BITMAP 
E7C1F0
EFF3FC
F8F63C
F07C1E
E0380E
E0380E
E0380E
E0380E
E0380E
E0380E
E0380E
E0380E
E0380E
E0380E
E0380E
E0380E
ENDCHAR
STARTCHAR n
ENCODING 110
SWIDTH 562 0
DWIDTH 18 0
BBX 14 16 2 0
VVECTOR 9 29
SWIDTH1 0 -1156
DWIDTH1 0 -37
BITMAP 
E7E0
EFF8
F878
F03C
E01C
E01C
E01C
E01C
E01C
E01C
E01C
E01C
E01C
E01C
E01C
E01C
ENDCHAR
STARTCHAR o
ENCODING 111
SWIDTH 562 0
DWIDTH 18 0
BBX 16 16 1 0
VVECTOR 9 29
SWIDTH1 0 -1156
DWIDTH1 0 -37
BITMAP 
0FF0
3FFC
7C3E
700E
F00F
E007
E007
E007
E007
E007
E007
F00F
700E
7C3E
3FFC
0FF0
ENDCHAR
STARTCHAR p
ENCODING 112
SWIDTH 562 0
DWIDTH 18 0
BBX 15 22 2 -6
VVECTOR 10 29
SWIDTH1 0 -1156
DWIDTH1 0 -37
BITMAP 
E7E0
FFF8
FC7C
F01C
F01E
E00E
E00E
E00E
E00E
E00E
E00E
F01E
F01C
FC7C
FFF8
E7E0
E000
E000
E000
E000
E000
E000
ENDCHAR
STARTCHAR q
ENCODING 113
SWIDTH 562 0
DWIDTH 18 0
BBX 15 22 1 -6
VVECTOR 8 29
SWIDTH1 0 -1156
DWIDTH1 0 -37
BITMAP 
0FCE
3FFE
7C7E
701E
F01E
E00E
E00E
E00E
E00E
E00E
E00E
F01E
701E
7C7E
3FFE
0FCE
000E
000E
000E
000E
000E
000E
ENDCHAR
STARTCHAR r
ENCODING 114
SWIDTH 344 0
DWIDTH 11 0
BBX 9 16 2 0
VVECTOR 8 29
SWIDTH1 0 -1156
DWIDTH1 0 -37
BITMAP 
E780
EF80
F800
F000
E000
E000
E000
E000
E000
E000
E000
E000
E000
E000
E000
E000
ENDCHAR
STARTCHAR s
ENCODING 115
SWIDTH 500 0
DWIDTH 16 0
BBX 14 16 1 0
VVECTOR 8 29
SWIDTH1 0 -1156
DWIDTH1 0 -37
BITMAP 
1FC0
7FF0
7070
E038
E000
E000
7000
7FE0
1FF8
0038
001C
E01C
E01C
7038
7FF8
1FE0
ENDCHAR
STARTCHAR t
ENCODING 116
SWIDTH 281 0
DWIDTH 9 0
BBX 9 22 0 0
VVECTOR 5 29
SWIDTH1 0 -1156
DWIDTH1 0 -37
BITMAP 
1C00
1C00
1C00
1C00
1C00
1C00
FF80
FF80
1C00
1C00
1C00
1C00
1C00
1C00
1C00
1C00
1C00
1C00
1C00
0E00
0F80
0380
ENDCHAR
STARTCHAR u
ENCODING 117
SWIDTH 562 0
DWIDTH 18 0
BBX 14 16 2 0
VVECTOR 9 29
SWIDTH1 0 -1156
DWIDTH1 0 -37
BITMAP 
E01C
E01C
E01C
E01C
E01C
E01C
E01C
E01C
E01C
E01C
E01C
E01C
F03C
787C
7FDC
1F9C
ENDCHAR
STARTCHAR v
ENCODING 118
SWIDTH 469 0
DWIDTH 15 0
BBX 15 16 0 0
VVECTOR 8 29
SWIDTH1 0 -1156
DWIDTH1 0 -37
BITMAP 
E00E
E00E
E00E
701C
701C
3838
3838
1C70
1C70
0EE0
0EE0
0FE0
07C0
07C0
0380
0380
ENDCHAR
STARTCHAR w
ENCODING 119
SWIDTH 719 0
DWIDTH 23 0
BBX 23 16 0 0
VVECTOR 12 29
SWIDTH1 0 -1156
DWIDTH1 0 -37
BITMAP 
E0380E
E0380E
E0380E
707C1C
707C1C
38EE38
38EE38
38EE38
1DC770
1DC770
1DC770
0F83E0
0F83E0
0701C0
0701C0
0701C0
ENDCHAR
STARTCHAR x
ENCODING 120
SWIDTH 469 0
DWIDTH 15 0
BBX 15 16 0 0
VVECTOR 8 29
SWIDTH1 0 -1156
DWIDTH1 0 -37
BITMAP 
E00E
F01E
783C
3C78
1C70
1EF0
0FE0
07C0
07C0
0FE0
1EF0
1C70
3C78
783C
F01E
E00E
ENDCHAR
STARTCHAR y
ENCODING 121
SWIDTH 469 0
DWIDTH 15 0
BBX 15 23 0 -7
VVECTOR 8 29
SWIDTH1 0 -1156
DWIDTH1 0 -37
BITMAP 
E00E
E00E
E00E
701C
701C
3838
3838
1C70
1C70
0EE0
0EE0
07C0
07C0
0380
0380
0700
0700
0E00
0E00
1C00
3C00
F800
E000
ENDCHAR
STARTCHAR z
ENCODING 122
SWIDTH 500 0
DWIDTH 16 0
BBX 14 16 1 0
VVECTOR 8 29
SWIDTH1 0 -1156
DWIDTH1 0 -37
BITMAP 
FFF8
FFF8
FFF8
0078
00F0
01E0
03C0
0780
0700
0F00
1E00
3C00
7800
FFFC
FFFC
FFFC
ENDCHAR
STARTCHAR braceleft
ENCODING 123
SWIDTH 344 0
DWIDTH 11 0
BBX 10 25 1 -1
VVECTOR 7 29
SWIDTH1 0 -1156
DWIDTH1 0 -37
BITMAP 
03C0
0FC0
0F00
1E00
1C00
1C00
1C00
1C00
1C00
1800
3800
7000
E000
7000
3800
1800
1C00
1C00
1C00
1C00
1C00
1E00
0F00
0FC0
03C0
ENDCHAR
STARTCHAR bar
ENCODING 124
SWIDTH 219 0
DWIDTH 7 0
BBX 3 23 2 0
VVECTOR 4 29
SWIDTH1 0 -1156
DWIDTH1 0 -37
BITMAP 
E0
E0
E0
E0
E0
E0
E0
E0
E0
E0
E0
E0
E0
E0
E0
E0
E0
E0
E0
E0
E0
E0
E0
ENDCHAR
STARTCHAR braceright
ENCODING 125
SWIDTH 344 0
DWIDTH 11 0
BBX 10 25 1 -1
VVECTOR 7 29
SWIDTH1 0 -1156
DWIDTH1 0 -37
BITMAP 
F000
FC00
3C00
1E00
0E00
0E00
0E00
0E00
0E00
0E00
0700
0780
03C0
0380
0700
0600
0E00
0E00
0E00
0E00
0E00
1E00
3C00
FC00
F000
ENDCHAR
STARTCHAR asciitilde
ENCODING 126
SWIDTH 344 0
DWIDTH 11 0
BBX 11 4 0 25
VVECTOR 6 29
SWIDTH1 0 -1156
DWIDTH1 0 -37
BITMAP 
3860
7EE0
E7C0
C380
ENDCHAR
STARTCHAR house
ENCODING 127
SWIDTH 781 0
DWIDTH 25 0
BBX 19 23 3 0
VVECTOR 13 29
SWIDTH1 0 -1156
DWIDTH1 0 -37
BITMAP 
004000
00E000
01F000
03B800
071C00
0E0E00
1C0700
380380
7001C0
E000E0
C00060
C00060
C00060
C00060
C00060
C00060
C00060
C00060
C00060
C00060
C00060
FFFFE0
FFFFE0
ENDCHAR
STARTCHAR Ccedilla
ENCODING 128
SWIDTH 719 0
DWIDTH 23 0
BBX 21 30 2 -7
VVECTOR 14 29
SWIDTH1 0 -1156
DWIDTH1 0 -37
BITMAP 
00FC00
07FF80
0FFFC0
1F03E0
3C00F0
780078
700038
700038
E00000
E00000
E00000
E00000
E00000
E00000
E00000
700038
700038
780078
3C00F0
1F03E0
0FFFC0
07FF80
00FC00
003000
003800
003C00
000E00
008E00
00FC00
007800
ENDCHAR
STARTCHAR udieresis
ENCODING 129
SWIDTH 562 0
DWIDTH 18 0
BBX 14 22 2 0
VVECTOR 9 29
SWIDTH1 0 -1156
DWIDTH1 0 -37
BITMAP 
3870
3870
3870
0000
0000
0000
E01C
E01C
E01C
E01C
E01C
E01C
E01C
E01C
E01C
E01C
E01C
E01C
F03C
787C
7FDC
1F9C
ENDCHAR
STARTCHAR eacute
ENCODING 130
SWIDTH 531 0
DWIDTH 17 0
BBX 15 23 1 0
VVECTOR 9 29
SWIDTH1 0 -1156
DWIDTH1 0 -37
BITMAP 
01F0
03C0
0700
0400
0000
0000
0000
0FE0
3FF8
7C7C
701C
F01E
E00E
FFFE
FFFE
E000
E000
E000
F01E
701C
7C7C
3FF8
0FE0
ENDCHAR
STARTCHAR acircumflex
ENCODING 131
SWIDTH 562 0
DWIDTH 18 0
BBX 17 23 1 0
VVECTOR 10 29
SWIDTH1 0 -1156
DWIDTH1 0 -37
BITMAP 
03C000
07E000
0E7000
081000
000000
000000
000000
0FF000
3FFC00
381C00
700E00
000E00
001E00
0FFE00
3FEE00
780E00
700E00
E00E00
E00E00
E01E00
703F00
7FF780
1FC380
ENDCHAR
STARTCHAR adieresis
ENCODING 132
SWIDTH 562 0
DWIDTH 18 0
BBX 17 22 1 0
VVECTOR 10 29
SWIDTH1 0 -1156
DWIDTH1 0 -37
BITMAP 
1C3800
1C3800
1C3800
000000
000000
000000
0FF000
3FFC00
381C00
700E00
000E00
001E00
0FFE00
3FEE00
780E00
700E00
E00E00
E00E00
E01E00
703F00
7FF780
1FC380
ENDCHAR
STARTCHAR agrave
ENCODING 133
SWIDTH 562 0
DWIDTH 18 0
BBX 17 23 1 0
VVECTOR 10 29
SWIDTH1 0 -1156
DWIDTH1 0 -37
BITMAP 
1F0000
078000
01C000
004000
000000
000000
000000
0FF000
3FFC00
381C00
700E00
000E00
001E00
0FFE00
3FEE00
780E00
700E00
E00E00
E00E00
E01E00
703F00
7FF780
1FC380
ENDCHAR
STARTCHAR aring
ENCODING 134
SWIDTH 562 0
DWIDTH 18 0
BBX 17 24 1 0
VVECTOR 10 29
SWIDTH1 0 -1156
DWIDTH1 0 -37
BITMAP 
018000
03C000
066000
066000
03C000
018000
000000
000000
0FF000
3FFC00
381C00
700E00
000E00
001E00
0FFE00
3FEE00
780E00
700E00
E00E00
E00E00
E01E00
703F00
7FF780
1FC380
ENDCHAR
STARTCHAR ccedilla
ENCODING 135
SWIDTH 500 0
DWIDTH 16 0
BBX 15 23 1 -7
VVECTOR 9 29
SWIDTH1 0 -1156
DWIDTH1 0 -37
BITMAP 
0FF0
3FFC
7C3E
700E
F00E
E000
E000
E000
E000
E000
E000
F00E
700E
7C3E
3FFC
0FF0
0180
01C0
01E0
0070
0470
07E0
03C0
ENDCHAR
STARTCHAR ecircumflex
ENCODING 136
SWIDTH 531 0
DWIDTH 17 0
BBX 15 23 1 0
VVECTOR 9 29
SWIDTH1 0 -1156
DWIDTH1 0 -37
BITMAP 
0380
07C0
0EE0
0820
0000
0000
0000
0FE0
3FF8
7C7C
701C
F01E
E00E
FFFE
FFFE
E000
E000
E000
F01E
701C
7C7C
3FF8
0FE0
ENDCHAR
STARTCHAR edieresis
ENCODING 137
SWIDTH 531 0
DWIDTH 17 0
BBX 15 23 1 0
VVECTOR 9 29
SWIDTH1 0 -1156
DWIDTH1 0 -37
BITMAP 
1C70
1C70
1C70
0000
0000
0000
0000
0FE0
3FF8
7C7C
701C
F01E
E00E
FFFE
FFFE
E000
E000
E000
F01E
701C
7C7C
3FF8
0FE0
ENDCHAR
STARTCHAR egrave
ENCODING 138
SWIDTH 531 0
DWIDTH 17 0
BBX 15 23 1 0
VVECTOR 9 29
SWIDTH1 0 -1156
DWIDTH1 0 -37
BITMAP 
1F00
0780
01C0
0040
0000
0000
0000
0FE0
3FF8
7C7C
701C
F01E
E00E
FFFE
FFFE
E000
E000
E000
F01E
701C
7C7C
3FF8
0FE0
ENDCHAR
STARTCHAR idieresis
ENCODING 139
SWIDTH 219 0
DWIDTH 7 0
BBX 7 23 0 0
VVECTOR 4 29
SWIDTH1 0 -1156
DWIDTH1 0 -37
BITMAP 
EE
EE
EE
00
00
00
00
38
38
38
38
38
38
38
38
38
38
38
38
38
38
38
38
ENDCHAR
STARTCHAR icircumflex
ENCODING 140
SWIDTH 219 0
DWIDTH 7 0
BBX 7 23 0 0
VVECTOR 4 29
SWIDTH1 0 -1156
DWIDTH1 0 -37
BITMAP 
38
7C
EE
82
00
00
00
38
38
38
38
38
38
38
38
38
38
38
38
38
38
38
38
ENDCHAR
STARTCHAR igrave
ENCODING 141
SWIDTH 219 0
DWIDTH 7 0
BBX 6 23 0 0
VVECTOR 3 29
SWIDTH1 0 -1156
DWIDTH1 0 -37
BITMAP 
F0
78
1C
04
00
00
00
38
38
38
38
38
38
38
38
38
38
38
38
38
38
38
38
ENDCHAR
STARTCHAR Adieresis
ENCODING 142
SWIDTH 688 0
DWIDTH 22 0
BBX 21 29 1 0
VVECTOR 12 29
SWIDTH1 0 -1156
DWIDTH1 0 -37
BITMAP 
070700
070700
070700
000000
000000
000000
00F800
00F800
01FC00
01FC00
01DC00
03DE00
038E00
038E00
078F00
070700
0F0780
0E0380
0E0380
1E03C0
1C01C0
1FFFC0
3FFFE0
3FFFE0
7800F0
700070
700070
F00078
E00038
ENDCHAR
STARTCHAR Aring
ENCODING 143
SWIDTH 688 0
DWIDTH 22 0
BBX 21 29 1 0
VVECTOR 12 29
SWIDTH1 0 -1156
DWIDTH1 0 -37
BITMAP 
007000
00F800
018C00
018C00
018C00
00F800
00F800
00F800
01FC00
01FC00
01DC00
03DE00
038E00
038E00
078F00
070700
0F0780
0E0380
0E0380
1E03C0
1C01C0
1FFFC0
3FFFE0
3FFFE0
7800F0
700070
700070
F00078
E00038
ENDCHAR
STARTCHAR Eacute
ENCODING 144
SWIDTH 656 0
DWIDTH 21 0
BBX 17 29 3 0
VVECTOR 13 29
SWIDTH1 0 -1156
DWIDTH1 0 -37
BITMAP 
007C00
00F000
01C000
010000
000000
000000
FFFF80
FFFF80
FFFF80
E00000
E00000
E00000
E00000
E00000
E00000
FFFE00
FFFE00
FFFE00
E00000
E00000
E00000
E00000
E00000
E00000
E00000
E00000
FFFF80
FFFF80
FFFF80
ENDCHAR
STARTCHAR ae
ENCODING 145
SWIDTH 906 0
DWIDTH 29 0
BBX 27 16 1 0
VVECTOR 15 29
SWIDTH1 0 -1156
DWIDTH1 0 -37
BITMAP 
0FF0FE00
3FFDFF80
381FC7C0
700F01C0
000F01E0
001E00E0
0FFFFFE0
3FEFFFE0
780E0000
700E0000
E00E0000
E00F01E0
E01F01C0
703BC7C0
7FF3FF80
1FC0FE00
ENDCHAR
STARTCHAR AE
ENCODING 146
SWIDTH 1000 0
DWIDTH 32 0
BBX 30 23 1 0
VVECTOR 16 29
SWIDTH1 0 -1156
DWIDTH1 0 -37
BITMAP 
001FFFFC
003FFFFC
003FFFFC
007F0000
007F0000
00E70000
00E70000
01C70000
01C70000
0387FFF0
0387FFF0
0707FFF0
07070000
0E070000
0E070000
1FFF0000
1FFF0000
3FFF0000
38070000
70070000
7007FFFC
E007FFFC
E007FFFC
ENDCHAR
STARTCHAR ocircumflex
ENCODING 147
SWIDTH 562 0
DWIDTH 18 0
BBX 16 23 1 0
VVECTOR 9 29
SWIDTH1 0 -1156
DWIDTH1 0 -37
BITMAP 
03C0
07E0
0E70
1818
0000
0000
0000
0FF0
3FFC
7C3E
700E
F00F
E007
E007
E007
E007
E007
E007
F00F
700E
7C3E
3FFC
0FF0
ENDCHAR
STARTCHAR odieresis
ENCODING 148
SWIDTH 562 0
DWIDTH 18 0
BBX 16 23 1 0
VVECTOR 9 29
SWIDTH1 0 -1156
DWIDTH1 0 -37
BITMAP 
1C38
1C38
1C38
0000
0000
0000
0000
0FF0
3FFC
7C3E
700E
F00F
E007
E007
E007
E007
E007
E007
F00F
700E
7C3E
3FFC
0FF0
ENDCHAR
STARTCHAR ograve
ENCODING 149
SWIDTH 562 0
DWIDTH 18 0
BBX 16 23 1 0
VVECTOR 9 29
SWIDTH1 0 -1156
DWIDTH1 0 -37
BITMAP 
1F00
0780
01C0
0040
0000
0000
0000
0FF0
3FFC
7C3E
700E
F00F
E007
E007
E007
E007
E007
E007
F00F
700E
7C3E
3FFC
0FF0
ENDCHAR
STARTCHAR ucircumflex
ENCODING 150
SWIDTH 562 0
DWIDTH 18 0
BBX 14 23 2 0
VVECTOR 9 29
SWIDTH1 0 -1156
DWIDTH1 0 -37
BITMAP 
0780
0FC0
1CE0
1020
0000
0000
0000
E01C
E01C
E01C
E01C
E01C
E01C
E01C
E01C
E01C
E01C
E01C
E01C
F03C
787C
7FDC
1F9C
ENDCHAR
STARTCHAR ugrave
ENCODING 151
SWIDTH 562 0
DWIDTH 18 0
BBX 14 23 2 0
VVECTOR 9 29
SWIDTH1 0 -1156
DWIDTH1 0 -37
BITMAP 
3E00
0F00
0380
0080
0000
0000
0000
E01C
E01C
E01C
E01C
E01C
E01C
E01C
E01C
E01C
E01C
E01C
E01C
F03C
787C
7FDC
1F9C
ENDCHAR
STARTCHAR ydieresis
ENCODING 152
SWIDTH 469 0
DWIDTH 15 0
BBX 15 29 0 -7
VVECTOR 8 29
SWIDTH1 0 -1156
DWIDTH1 0 -37
BITMAP 
1C70
1C70
1C70
0000
0000
0000
E00E
E00E
E00E
701C
701C
3838
3838
1C70
1C70
0EE0
0EE0
07C0
07C0
0380
0380
0700
0700
0E00
0E00
1C00
3C00
F800
E000
ENDCHAR
STARTCHAR Odieresis
ENCODING 153
SWIDTH 781 0
DWIDTH 25 0
BBX 22 29 2 0
VVECTOR 14 29
SWIDTH1 0 -1156
DWIDTH1 0 -37
BITMAP 
070380
070380
070380
000000
000000
000000
00FC00
07FF80
0FFFC0
1F03E0
3C00F0
780078
700038
700038
E0001C
E0001C
E0001C
E0001C
E0001C
E0001C
E0001C
700038
700038
780078
3C00F0
1F03E0
0FFFC0
07FF80
00FC00
ENDCHAR
STARTCHAR Udieresis
ENCODING 154
SWIDTH 719 0
DWIDTH 23 0
BBX 18 29 3 0
VVECTOR 13 29
SWIDTH1 0 -1156
DWIDTH1 0 -37
BITMAP 
0E1C00
0E1C00
0E1C00
000000
000000
000000
E001C0
E001C0
E001C0
E001C0
E001C0
E001C0
E001C0
E001C0
E001C0
E001C0
E001C0
E001C0
E001C0
E001C0
E001C0
E001C0
E001C0
F003C0
700380
7C0F80
3FFF00
1FFE00
07F800
ENDCHAR
STARTCHAR oslash
ENCODING 155
SWIDTH 562 0
DWIDTH 18 0
BBX 16 16 1 0
VVECTOR 9 29
SWIDTH1 0 -1156
DWIDTH1 0 -37
BITMAP 
0FF2
3FFF
7C3E
701E
F03F
E077
E0E7
E1C7
E387
E707
EE07
FC0F
780E
7C3E
FFFC
4FF0
ENDCHAR
STARTCHAR sterling
ENCODING 156
SWIDTH 562 0
DWIDTH 18 0
BBX 16 23 1 0
VVECTOR 9 29
SWIDTH1 0 -1156
DWIDTH1 0 -37
BITMAP 
03C0
0FF0
1FF8
3C3C
381C
700E
700E
7000
7000
3800
3800
FFC0
FFC0
0C00
0C00
0C00
0C00
0C00
1C00
1B83
3FFF
7FFF
307E
ENDCHAR
STARTCHAR Oslash
ENCODING 157
SWIDTH 781 0
DWIDTH 25 0
BBX 24 23 1 0
VVECTOR 14 29
SWIDTH1 0 -1156
DWIDTH1 0 -37
BITMAP 
007E07
03FFCE
0FFFFC
0F81F8
1E0078
3C00FC
3801DC
38039C
70070E
700E0E
701C0E
70180E
70380E
70700E
70E00E
39C01C
3B801C
3F003C
1E0078
1F81F0
3FFFE0
73FFC0
E07E00
ENDCHAR
STARTCHAR multiply
ENCODING 158
SWIDTH 562 0
DWIDTH 18 0
BBX 12 12 3 5
VVECTOR 9 29
SWIDTH1 0 -1156
DWIDTH1 0 -37
BITMAP 
4020
E070
70E0
39C0
1F80
0F00
0F00
1F80
39C0
70E0
E070
4020
ENDCHAR
STARTCHAR florin
ENCODING 159
SWIDTH 562 0
DWIDTH 18 0
BBX 17 30 0 -6
VVECTOR 8 29
SWIDTH1 0 -1156
DWIDTH1 0 -37
BITMAP 
000780
001F80
003800
003000
006000
006000
006000
00C000
00C000
0FFE00
0FFE00
00C000
018000
018000
018000
018000
018000
018000
030000
030000
030000
030000
030000
060000
060000
060000
0C0000
1C0000
F80000
E00000
ENDCHAR
STARTCHAR aacute
ENCODING 160
SWIDTH 562 0
DWIDTH 18 0
BBX 17 23 1 0
VVECTOR 10 29
SWIDTH1 0 -1156
DWIDTH1 0 -37
BITMAP 
00F800
01E000
038000
020000
000000
000000
000000
0FF000
3FFC00
381C00
700E00
000E00
001E00
0FFE00
3FEE00
780E00
700E00
E00E00
E00E00
E01E00
703F00
7FF780
1FC380
ENDCHAR
STARTCHAR iacute
ENCODING 161
SWIDTH 219 0
DWIDTH 7 0
BBX 6 23 1 0
VVECTOR 5 29
SWIDTH1 0 -1156
DWIDTH1 0 -37
BITMAP 
3C
78
E0
80
00
00
00
70
70
70
70
70
70
70
70
70
70
70
70
70
70
70
70
ENDCHAR
STARTCHAR oacute
ENCODING 162
SWIDTH 562 0
DWIDTH 18 0
BBX 16 23 1 0
VVECTOR 9 29
SWIDTH1 0 -1156
DWIDTH1 0 -37
BITMAP 
00F8
01E0
0380
0200
0000
0000
0000
0FF0
3FFC
7C3E
700E
F00F
E007
E007
E007
E007
E007
E007
F00F
700E
7C3E
3FFC
0FF0
ENDCHAR
STARTCHAR uacute
ENCODING 163
SWIDTH 562 0
DWIDTH 18 0
BBX 14 23 2 0
VVECTOR 9 29
SWIDTH1 0 -1156
DWIDTH1 0 -37
BITMAP 
01F0
03C0
0700
0400
0000
0000
0000
E01C
E01C
E01C
E01C
E01C
E01C
E01C
E01C
E01C
E01C
E01C
E01C
F03C
787C
7FDC
1F9C
ENDCHAR
STARTCHAR ntilde
ENCODING 164
SWIDTH 562 0
DWIDTH 18 0
BBX 14 23 2 0
VVECTOR 9 29
SWIDTH1 0 -1156
DWIDTH1 0 -37
BITMAP 
1E18
3F38
73F0
61E0
0000
0000
0000
E7E0
EFF8
F878
F03C
E01C
E01C
E01C
E01C
E01C
E01C
E01C
E01C
E01C
E01C
E01C
E01C
ENDCHAR
STARTCHAR Ntilde
ENCODING 165
SWIDTH 750 0
DWIDTH 24 0
BBX 19 29 3 0
VVECTOR 13 29
SWIDTH1 0 -1156
DWIDTH1 0 -37
BITMAP 
07C300
0FE700
1CFE00
187C00
000000
000000
F000E0
F800E0
F800E0
FC00E0
FE00E0
EE00E0
EF00E0
E780E0
E380E0
E3C0E0
E1E0E0
E0E0E0
E0F0E0
E078E0
E038E0
E03CE0
E01EE0
E00EE0
E00FE0
E007E0
E003E0
E003E0
E001E0
ENDCHAR
STARTCHAR ordfeminine
ENCODING 166
SWIDTH 375 0
DWIDTH 12 0
BBX 9 14 2 9
VVECTOR 7 29
SWIDTH1 0 -1156
DWIDTH1 0 -37
BITMAP 
3C00
7E00
E300
0F00
7F00
F300
C300
C700
FF00
7980
0000
0000
FF00
FF00
ENDCHAR
STARTCHAR ordmasculine
ENCODING 167
SWIDTH 375 0
DWIDTH 12 0
BBX 8 14 2 9
VVECTOR 6 29
SWIDTH1 0 -1156
DWIDTH1 0 -37
BITMAP 
3C
7E
E7
C3
C3
C3
C3
E7
7E
3C
00
00
FF
FF
ENDCHAR
STARTCHAR questiondown
ENCODING 168
SWIDTH 531 0
DWIDTH 17 0
BBX 15 23 1 0
VVECTOR 9 29
SWIDTH1 0 -1156
DWIDTH1 0 -37
BITMAP 
0380
0380
0380
0000
0000
0000
0380
0380
0700
0F00
1E00
3C00
7800
7000
E000
E000
E00E
E00E
701C
783C
3FF8
1FF0
07C0
ENDCHAR
STARTCHAR registered
ENCODING 169
SWIDTH 750 0
DWIDTH 24 0
BBX 22 23 1 0
VVECTOR 12 29
SWIDTH1 0 -1156
DWIDTH1 0 -37
BITMAP 
007800
03FF00
0F03C0
1C00E0
380070
300030
61FC18
61FC18
418608
C1860C
C1860C
C1FC0C
C1FE0C
C1860C
418608
618618
618618
300030
380070
1C00E0
0F03C0
03FF00
007800
ENDCHAR
STARTCHAR logicalnot
ENCODING 170
SWIDTH 594 0
DWIDTH 19 0
BBX 16 7 2 5
VVECTOR 11 29
SWIDTH1 0 -1156
DWIDTH1 0 -37
BITMAP 
FFFF
FFFF
FFFF
0007
0007
0007
0007
ENDCHAR
STARTCHAR onehalf
ENCODING 171
SWIDTH 719 0
DWIDTH 23 0
BBX 19 23 3 0
VVECTOR 14 29
SWIDTH1 0 -1156
DWIDTH1 0 -37
BITMAP 
3001C0
F00380
F00300
300700
300E00
300C00
301C00
303800
303000
307000
30E000
00C000
01C780
038FC0
031860
071860
0E01C0
0C0780
1C0E00
380C00
301800
701FE0
E01FE0
ENDCHAR
STARTCHAR onequarter
ENCODING 172
SWIDTH 719 0
DWIDTH 23 0
BBX 19 23 3 0
VVECTOR 14 29
SWIDTH1 0 -1156
DWIDTH1 0 -37
BITMAP 
3001C0
F00380
F00300
300700
300E00
300C00
301C00
303800
303000
307000
30E000
00C000
01C0C0
0381C0
0303C0
0706C0
0E06C0
0C0CC0
1C18C0
381FE0
301FE0
7000C0
E000C0
ENDCHAR
STARTCHAR exclamdown
ENCODING 173
SWIDTH 281 0
DWIDTH 9 0
BBX 3 23 3 0
VVECTOR 5 29
SWIDTH1 0 -1156
DWIDTH1 0 -37
BITMAP 
E0
E0
E0
00
00
00
40
40
40
E0
E0
E0
E0
E0
E0
E0
E0
E0
E0
E0
E0
E0
E0
ENDCHAR
STARTCHAR guillemotleft
ENCODING 174
SWIDTH 562 0
DWIDTH 18 0
BBX 15 11 1 3
VVECTOR 8 29
SWIDTH1 0 -1156
DWIDTH1 0 -37
BITMAP 
0E0E
1C1C
3838
7070
E0E0
C0C0
E0E0
7070
3838
1C1C
0E0E
ENDCHAR
STARTCHAR guillemotright
ENCODING 175
SWIDTH 562 0
DWIDTH 18 0
BBX 15 11 2 3
VVECTOR 10 29
SWIDTH1 0 -1156
DWIDTH1 0 -37
BITMAP 
E0E0
7070
3838
1C1C
0E0E
0606
0E0E
1C1C
3838
7070
E0E0
ENDCHAR
STARTCHAR ltshade
ENCODING 176
SWIDTH 594 0
DWIDTH 19 0
BBX 15 34 2 -5
VVECTOR 10 29
SWIDTH1 0 -1156
DWIDTH1 0 -37
BITMAP 
E38E
E38E
0000
0000
0000
0000
E38E
E38E
E38E
E38E
0000
0000
0000
0000
E38E
E38E
E38E
E38E
0000
0000
0000
0000
E38E
E38E
E38E
E38E
0000
0000
0000
0000
E38E
E38E
E38E
E38E
ENDCHAR
STARTCHAR shade
ENCODING 177
SWIDTH 594 0
DWIDTH 19 0
BBX 15 34 2 -5
VVECTOR 10 29
SWIDTH1 0 -1156
DWIDTH1 0 -37
BITMAP 
E00E
E00E
0380
0380
0380
0380
E00E
E00E
E00E
E00E
0380
0380
0380
0380
E00E
E00E
E00E
E00E
0380
0380
0380
0380
E00E
E00E
E00E
E00E
0380
0380
0380
0380
E00E
E00E
E00E
E00E
ENDCHAR
STARTCHAR dkshade
ENCODING 178
SWIDTH 594 0
DWIDTH 19 0
BBX 15 34 2 -5
VVECTOR 10 29
SWIDTH1 0 -1156
DWIDTH1 0 -37
BITMAP 
E38E
E38E
1C70
1C70
1C70
1C70
E38E
E38E
E38E
E38E
1C70
1C70
1C70
1C70
E38E
E38E
E38E
E38E
1C70
1C70
1C70
1C70
E38E
E38E
E38E
E38E
1C70
1C70
1C70
1C70
E38E
E38E
E38E
E38E
ENDCHAR
STARTCHAR SF110000
ENCODING 179
SWIDTH 594 0
DWIDTH 19 0
BBX 2 37 8 -8
VVECTOR 9 29
SWIDTH1 0 -1156
DWIDTH1 0 -37
BITMAP 
C0
C0
C0
C0
C0
C0
C0
C0
C0
C0
C0
C0
C0
C0
C0
C0
C0
C0
C0
C0
C0
C0
C0
C0
C0
C0
C0
C0
C0
C0
C0
C0
C0
C0
C0
C0
C0
ENDCHAR
STARTCHAR SF090000
ENCODING 180
SWIDTH 594 0
DWIDTH 19 0
BBX 10 37 0 -8
VVECTOR 1 29
SWIDTH1 0 -1156
DWIDTH1 0 -37
BITMAP 
00C0
00C0
00C0
00C0
00C0
00C0
00C0
00C0
00C0
00C0
00C0
00C0
00C0
00C0
00C0
FFC0
FFC0
00C0
00C0
00C0
00C0
00C0
00C0
00C0
00C0
00C0
00C0
00C0
00C0
00C0
00C0
00C0
00C0
00C0
00C0
00C0
00C0
ENDCHAR
STARTCHAR Aacute
ENCODING 181
SWIDTH 688 0
DWIDTH 22 0
BBX 21 29 1 0
VVECTOR 12 29
SWIDTH1 0 -1156
DWIDTH1 0 -37
BITMAP 
003E00
007800
00E000
008000
000000
000000
00F800
00F800
01FC00
01FC00
01DC00
03DE00
038E00
038E00
078F00
070700
0F0780
0E0380
0E0380
1E03C0
1C01C0
1FFFC0
3FFFE0
3FFFE0
7800F0
700070
700070
F00078
E00038
ENDCHAR
STARTCHAR Acircumflex
ENCODING 182
SWIDTH 688 0
DWIDTH 22 0
BBX 21 29 1 0
VVECTOR 12 29
SWIDTH1 0 -1156
DWIDTH1 0 -37
BITMAP 
007000
00F800
01DC00
010400
000000
000000
00F800
00F800
01FC00
01FC00
01DC00
03DE00
038E00
038E00
078F00
070700
0F0780
0E0380
0E0380
1E03C0
1C01C0
1FFFC0
3FFFE0
3FFFE0
7800F0
700070
700070
F00078
E00038
ENDCHAR
STARTCHAR Agrave
ENCODING 183
SWIDTH 688 0
DWIDTH 22 0
BBX 21 29 1 0
VVECTOR 12 29
SWIDTH1 0 -1156
DWIDTH1 0 -37
BITMAP 
03E000
00F000
003800
000800
000000
000000
00F800
00F800
01FC00
01FC00
01DC00
03DE00
038E00
038E00
078F00
070700
0F0780
0E0380
0E0380
1E03C0
1C01C0
1FFFC0
3FFFE0
3FFFE0
7800F0
700070
700070
F00078
E00038
ENDCHAR
STARTCHAR copyright
ENCODING 184
SWIDTH 750 0
DWIDTH 24 0
BBX 22 23 1 0
VVECTOR 12 29
SWIDTH1 0 -1156
DWIDTH1 0 -37
BITMAP 
007800
03FF00
0F03C0
1C00E0
380070
300030
607C18
60FE18
41C608
C1800C
C1800C
C1800C
C1800C
C1800C
41C608
60FE18
607C18
300030
380070
1C00E0
0F03C0
03FF00
007800
ENDCHAR
STARTCHAR SF230000
ENCODING 185
SWIDTH 594 0
DWIDTH 19 0
BBX 12 37 0 -8
VVECTOR 3 29
SWIDTH1 0 -1156
DWIDTH1 0 -37
BITMAP 
0330
0330
0330
0330
0330
0330
0330
0330
0330
0330
0330
0330
0330
FF30
FF30
0030
0030
FF30
FF30
0330
0330
0330
0330
0330
0330
0330
0330
0330
0330
0330
0330
0330
0330
0330
0330
0330
0330
ENDCHAR
STARTCHAR SF240000
ENCODING 186
SWIDTH 594 0
DWIDTH 19 0
BBX 6 37 6 -8
VVECTOR 9 29
SWIDTH1 0 -1156
DWIDTH1 0 -37
BITMAP 
CC
CC
CC
CC
CC
CC
CC
CC
CC
CC
CC
CC
CC
CC
CC
CC
CC
CC
CC
CC
CC
CC
CC
CC
CC
CC
CC
CC
CC
CC
CC
CC
CC
CC
CC
CC
CC
ENDCHAR
STARTCHAR SF250000
ENCODING 187
SWIDTH 594 0
DWIDTH 19 0
BBX 12 24 0 -8
VVECTOR 3 29
SWIDTH1 0 -1156
DWIDTH1 0 -37
BITMAP 
FFF0
FFF0
0030
0030
FF30
FF30
0330
0330
0330
0330
0330
0330
0330
0330
0330
0330
0330
0330
0330
0330
0330
0330
0330
0330
ENDCHAR
STARTCHAR SF260000
ENCODING 188
SWIDTH 594 0
DWIDTH 19 0
BBX 12 19 0 10
VVECTOR 3 29
SWIDTH1 0 -1156
DWIDTH1 0 -37
BITMAP 
0330
0330
0330
0330
0330
0330
0330
0330
0330
0330
0330
0330
0330
FF30
FF30
0030
0030
FFF0
FFF0
ENDCHAR
STARTCHAR cent
ENCODING 189
SWIDTH 562 0
DWIDTH 18 0
BBX 14 22 2 -3
VVECTOR 9 29
SWIDTH1 0 -1156
DWIDTH1 0 -37
BITMAP 
0060
0060
0060
0FE0
3FF8
7CFC
719C
F19C
E180
E300
E300
E300
E300
E600
F61C
761C
7C7C
3FF8
0FE0
1800
1800
1800
ENDCHAR
STARTCHAR yen
ENCODING 190
SWIDTH 562 0
DWIDTH 18 0
BBX 16 23 1 0
VVECTOR 9 29
SWIDTH1 0 -1156
DWIDTH1 0 -37
BITMAP 
C003
E007
6006
700E
300C
381C
1818
1C38
0C30
0E70
0660
7FFE
7FFE
03C0
0180
0180
7FFE
7FFE
0180
0180
0180
0180
0180
ENDCHAR
STARTCHAR SF030000
ENCODING 191
SWIDTH 594 0
DWIDTH 19 0
BBX 10 22 0 -8
VVECTOR 1 29
SWIDTH1 0 -1156
DWIDTH1 0 -37
BITMAP 
FFC0
FFC0
00C0
00C0
00C0
00C0
00C0
00C0
00C0
00C0
00C0
00C0
00C0
00C0
00C0
00C0
00C0
00C0
00C0
00C0
00C0
00C0
ENDCHAR
STARTCHAR SF020000
ENCODING 192
SWIDTH 594 0
DWIDTH 19 0
BBX 11 17 8 12
VVECTOR 18 29
SWIDTH1 0 -1156
DWIDTH1 0 -37
BITMAP 
C000
C000
C000
C000
C000
C000
C000
C000
C000
C000
C000
C000
C000
C000
C000
FFE0
FFE0
ENDCHAR
STARTCHAR SF070000
ENCODING 193
SWIDTH 594 0
DWIDTH 19 0
BBX 19 17 0 12
VVECTOR 10 29
SWIDTH1 0 -1156
DWIDTH1 0 -37
BITMAP 
00C000
00C000
00C000
00C000
00C000
00C000
00C000
00C000
00C000
00C000
00C000
00C000
00C000
00C000
00C000
FFFFE0
FFFFE0
ENDCHAR
STARTCHAR SF060000
ENCODING 194
SWIDTH 594 0
DWIDTH 19 0
BBX 19 22 0 -8
VVECTOR 10 29
SWIDTH1 0 -1156
DWIDTH1 0 -37
BITMAP 
FFFFE0
FFFFE0
00C000
00C000
00C000
00C000
00C000
00C000
00C000
00C000
00C000
00C000
00C000
00C000
00C000
00C000
00C000
00C000
00C000
00C000
00C000
00C000
ENDCHAR
STARTCHAR SF080000
ENCODING 195
SWIDTH 594 0
DWIDTH 19 0
BBX 11 37 8 -8
VVECTOR 18 29
SWIDTH1 0 -1156
DWIDTH1 0 -37
BITMAP 
C000
C000
C000
C000
C000
C000
C000
C000
C000
C000
C000
C000
C000
C000
C000
FFE0
FFE0
C000
C000
C000
C000
C000
C000
C000
C000
C000
C000
C000
C000
C000
C000
C000
C000
C000
C000
C000
C000
ENDCHAR
STARTCHAR SF100000
ENCODING 196
SWIDTH 594 0
DWIDTH 19 0
BBX 19 2 0 12
VVECTOR 10 29
SWIDTH1 0 -1156
DWIDTH1 0 -37
BITMAP 
FFFFE0
FFFFE0
ENDCHAR
STARTCHAR SF050000
ENCODING 197
SWIDTH 594 0
DWIDTH 19 0
BBX 19 37 0 -8
VVECTOR 10 29
SWIDTH1 0 -1156
DWIDTH1 0 -37
BITMAP 
00C000
00C000
00C000
00C000
00C000
00C000
00C000
00C000
00C000
00C000
00C000
00C000
00C000
00C000
00C000
FFFFE0
FFFFE0
00C000
00C000
00C000
00C000
00C000
00C000
00C000
00C000
00C000
00C000
00C000
00C000
00C000
00C000
00C000
00C000
00C000
00C000
00C000
00C000
ENDCHAR
STARTCHAR atilde
ENCODING 198
SWIDTH 562 0
DWIDTH 18 0
BBX 17 23 1 0
VVECTOR 10 29
SWIDTH1 0 -1156
DWIDTH1 0 -37
BITMAP 
0F0C00
1F9C00
39F800
30F000
000000
000000
000000
0FF000
3FFC00
381C00
700E00
000E00
001E00
0FFE00
3FEE00
780E00
700E00
E00E00
E00E00
E01E00
703F00
7FF780
1FC380
ENDCHAR
STARTCHAR Atilde
ENCODING 199
SWIDTH 688 0
DWIDTH 22 0
BBX 21 29 1 0
VVECTOR 12 29
SWIDTH1 0 -1156
DWIDTH1 0 -37
BITMAP 
03E180
07F380
0E7F00
0C3E00
000000
000000
00F800
00F800
01FC00
01FC00
01DC00
03DE00
038E00
038E00
078F00
070700
0F0780
0E0380
0E0380
1E03C0
1C01C0
1FFFC0
3FFFE0
3FFFE0
7800F0
700070
700070
F00078
E00038
ENDCHAR
STARTCHAR SF380000
ENCODING 200
SWIDTH 594 0
DWIDTH 19 0
BBX 13 19 6 10
VVECTOR 16 29
SWIDTH1 0 -1156
DWIDTH1 0 -37
BITMAP 
CC00
CC00
CC00
CC00
CC00
CC00
CC00
CC00
CC00
CC00
CC00
CC00
CC00
CFF8
CFF8
C000
C000
FFF8
FFF8
ENDCHAR
STARTCHAR SF390000
ENCODING 201
SWIDTH 594 0
DWIDTH 19 0
BBX 13 24 6 -8
VVECTOR 16 29
SWIDTH1 0 -1156
DWIDTH1 0 -37
BITMAP 
FFF8
FFF8
C000
C000
CFF8
CFF8
CC00
CC00
CC00
CC00
CC00
CC00
CC00
CC00
CC00
CC00
CC00
CC00
CC00
CC00
CC00
CC00
CC00
CC00
ENDCHAR
STARTCHAR SF400000
ENCODING 202
SWIDTH 594 0
DWIDTH 19 0
BBX 19 19 0 10
VVECTOR 10 29
SWIDTH1 0 -1156
DWIDTH1 0 -37
BITMAP 
033000
033000
033000
033000
033000
033000
033000
033000
033000
033000
033000
033000
033000
FF3FE0
FF3FE0
000000
000000
FFFFE0
FFFFE0
ENDCHAR
STARTCHAR SF410000
ENCODING 203
SWIDTH 594 0
DWIDTH 19 0
BBX 19 24 0 -8
VVECTOR 10 29
SWIDTH1 0 -1156
DWIDTH1 0 -37
BITMAP 
FFFFE0
FFFFE0
000000
000000
FF3FE0
FF3FE0
033000
033000
033000
033000
033000
033000
033000
033000
033000
033000
033000
033000
033000
033000
033000
033000
033000
033000
ENDCHAR
STARTCHAR SF420000
ENCODING 204
SWIDTH 594 0
DWIDTH 19 0
BBX 13 37 6 -8
VVECTOR 16 29
SWIDTH1 0 -1156
DWIDTH1 0 -37
BITMAP 
CC00
CC00
CC00
CC00
CC00
CC00
CC00
CC00
CC00
CC00
CC00
CC00
CC00
CFF8
CFF8
C000
C000
CFF8
CFF8
CC00
CC00
CC00
CC00
CC00
CC00
CC00
CC00
CC00
CC00
CC00
CC00
CC00
CC00
CC00
CC00
CC00
CC00
ENDCHAR
STARTCHAR SF430000
ENCODING 205
SWIDTH 594 0
DWIDTH 19 0
BBX 19 6 0 10
VVECTOR 10 29
SWIDTH1 0 -1156
DWIDTH1 0 -37
BITMAP 
FFFFE0
FFFFE0
000000
000000
FFFFE0
FFFFE0
ENDCHAR
STARTCHAR SF440000
ENCODING 206
SWIDTH 594 0
DWIDTH 19 0
BBX 19 37 0 -8
VVECTOR 10 29
SWIDTH1 0 -1156
DWIDTH1 0 -37
BITMAP 
033000
033000
033000
033000
033000
033000
033000
033000
033000
033000
033000
033000
033000
FF3FE0
FF3FE0
000000
000000
FF3FE0
FF3FE0
033000
033000
033000
033000
033000
033000
033000
033000
033000
033000
033000
033000
033000
033000
033000
033000
033000
033000
ENDCHAR
STARTCHAR currency
ENCODING 207
SWIDTH 562 0
DWIDTH 18 0
BBX 12 14 3 8
VVECTOR 9 29
SWIDTH1 0 -1156
DWIDTH1 0 -37
BITMAP 
4020
EF70
7FE0
70E0
6060
C030
C030
C030
C030
6060
70E0
7FE0
EF70
4020
ENDCHAR
STARTCHAR eth
ENCODING 208
SWIDTH 562 0
DWIDTH 18 0
BBX 16 23 1 0
VVECTOR 9 29
SWIDTH1 0 -1156
DWIDTH1 0 -37
BITMAP 
3C70
0FE0
03C0
07E0
0E70
0038
001C
0FFC
3FFE
7C3E
700E
F00F
E007
E007
E007
E007
E007
E007
F00F
700E
7C3E
3FFC
0FF0
ENDCHAR
STARTCHAR Eth
ENCODING 209
SWIDTH 719 0
DWIDTH 23 0
BBX 21 23 1 0
VVECTOR 12 29
SWIDTH1 0 -1156
DWIDTH1 0 -37
BITMAP 
3FF800
3FFF00
3FFF80
3807C0
3801E0
3800F0
380070
380070
380038
380038
FF8038
FF8038
FF8038
380038
380038
380070
380070
3800F0
3801E0
3807C0
3FFF80
3FFF00
3FF800
ENDCHAR
STARTCHAR Ecircumflex
ENCODING 210
SWIDTH 656 0
DWIDTH 21 0
BBX 17 29 3 0
VVECTOR 13 29
SWIDTH1 0 -1156
DWIDTH1 0 -37
BITMAP 
01E000
03F000
073800
040800
000000
000000
FFFF80
FFFF80
FFFF80
E00000
E00000
E00000
E00000
E00000
E00000
FFFE00
FFFE00
FFFE00
E00000
E00000
E00000
E00000
E00000
E00000
E00000
E00000
FFFF80
FFFF80
FFFF80
ENDCHAR
STARTCHAR Edieresis
ENCODING 211
SWIDTH 656 0
DWIDTH 21 0
BBX 17 29 3 0
VVECTOR 13 29
SWIDTH1 0 -1156
DWIDTH1 0 -37
BITMAP 
0E1C00
0E1C00
0E1C00
000000
000000
000000
FFFF80
FFFF80
FFFF80
E00000
E00000
E00000
E00000
E00000
E00000
FFFC00
FFFC00
FFFC00
E00000
E00000
E00000
E00000
E00000
E00000
E00000
E00000
FFFF80
FFFF80
FFFF80
ENDCHAR
STARTCHAR Egrave
ENCODING 212
SWIDTH 656 0
DWIDTH 21 0
BBX 17 29 3 0
VVECTOR 13 29
SWIDTH1 0 -1156
DWIDTH1 0 -37
BITMAP 
0F8000
03C000
00E000
002000
000000
000000
FFFF80
FFFF80
FFFF80
E00000
E00000
E00000
E00000
E00000
E00000
FFFE00
FFFE00
FFFE00
E00000
E00000
E00000
E00000
E00000
E00000
E00000
E00000
FFFF80
FFFF80
FFFF80
ENDCHAR
STARTCHAR Euro
ENCODING 213
SWIDTH 250 0
DWIDTH 8 0
BBX 2 16 3 0
VVECTOR 4 29
SWIDTH1 0 -1156
DWIDTH1 0 -37
BITMAP 
C0
C0
C0
C0
C0
C0
C0
C0
C0
C0
C0
C0
C0
C0
C0
C0
ENDCHAR
STARTCHAR Iacute
ENCODING 214
SWIDTH 250 0
DWIDTH 8 0
BBX 6 29 2 0
VVECTOR 6 29
SWIDTH1 0 -1156
DWIDTH1 0 -37
BITMAP 
3C
78
E0
80
00
00
70
70
70
70
70
70
70
70
70
70
70
70
70
70
70
70
70
70
70
70
70
70
70
ENDCHAR
STARTCHAR Icircumflex
ENCODING 215
SWIDTH 250 0
DWIDTH 8 0
BBX 7 29 1 0
VVECTOR 5 29
SWIDTH1 0 -1156
DWIDTH1 0 -37
BITMAP 
38
7C
EE
82
00
00
38
38
38
38
38
38
38
38
38
38
38
38
38
38
38
38
38
38
38
38
38
38
38
ENDCHAR
STARTCHAR Idieresis
ENCODING 216
SWIDTH 250 0
DWIDTH 8 0
BBX 7 29 1 0
VVECTOR 5 29
SWIDTH1 0 -1156
DWIDTH1 0 -37
BITMAP 
EE
EE
EE
00
00
00
38
38
38
38
38
38
38
38
38
38
38
38
38
38
38
38
38
38
38
38
38
38
38
ENDCHAR
STARTCHAR SF040000
ENCODING 217
SWIDTH 594 0
DWIDTH 19 0
BBX 10 17 0 12
VVECTOR 1 29
SWIDTH1 0 -1156
DWIDTH1 0 -37
BITMAP 
00C0
00C0
00C0
00C0
00C0
00C0
00C0
00C0
00C0
00C0
00C0
00C0
00C0
00C0
00C0
FFC0
FFC0
ENDCHAR
STARTCHAR SF010000
ENCODING 218
SWIDTH 594 0
DWIDTH 19 0
BBX 11 22 8 -8
VVECTOR 18 29
SWIDTH1 0 -1156
DWIDTH1 0 -37
BITMAP 
FFE0
FFE0
C000
C000
C000
C000
C000
C000
C000
C000
C000
C000
C000
C000
C000
C000
C000
C000
C000
C000
C000
C000
ENDCHAR
STARTCHAR block
ENCODING 219
SWIDTH 594 0
DWIDTH 19 0
BBX 19 37 0 -8
VVECTOR 10 29
SWIDTH1 0 -1156
DWIDTH1 0 -37
BITMAP 
FFFFE0
FFFFE0
FFFFE0
FFFFE0
FFFFE0
FFFFE0
FFFFE0
FFFFE0
FFFFE0
FFFFE0
FFFFE0
FFFFE0
FFFFE0
FFFFE0
FFFFE0
FFFFE0
FFFFE0
FFFFE0
FFFFE0
FFFFE0
FFFFE0
FFFFE0
FFFFE0
FFFFE0
FFFFE0
FFFFE0
FFFFE0
FFFFE0
FFFFE0
FFFFE0
FFFFE0
FFFFE0
FFFFE0
FFFFE0
FFFFE0
FFFFE0
FFFFE0
ENDCHAR
STARTCHAR dnblock
ENCODING 220
SWIDTH 594 0
DWIDTH 19 0
BBX 19 21 0 -8
VVECTOR 10 29
SWIDTH1 0 -1156
DWIDTH1 0 -37
BITMAP 
FFFFE0
FFFFE0
FFFFE0
FFFFE0
FFFFE0
FFFFE0
FFFFE0
FFFFE0
FFFFE0
FFFFE0
FFFFE0
FFFFE0
FFFFE0
FFFFE0
FFFFE0
FFFFE0
FFFFE0
FFFFE0
FFFFE0
FFFFE0
FFFFE0
ENDCHAR
STARTCHAR brokenbar
ENCODING 221
SWIDTH 219 0
DWIDTH 7 0
BBX 3 23 2 0
VVECTOR 4 29
SWIDTH1 0 -1156
DWIDTH1 0 -37
BITMAP 
E0
E0
E0
E0
E0
E0
E0
E0
E0
00
00
00
00
E0
E0
E0
E0
E0
E0
E0
E0
E0
E0
ENDCHAR
STARTCHAR Igrave
ENCODING 222
SWIDTH 250 0
DWIDTH 8 0
BBX 7 29 0 0
VVECTOR 3 29
SWIDTH1 0 -1156
DWIDTH1 0 -37
BITMAP 
F8
3C
0E
02
00
00
1C
1C
1C
1C
1C
1C
1C
1C
1C
1C
1C
1C
1C
1C
1C
1C
1C
1C
1C
1C
1C
1C
1C
ENDCHAR
STARTCHAR upblock
ENCODING 223
SWIDTH 594 0
DWIDTH 19 0
BBX 19 16 0 13
VVECTOR 10 29
SWIDTH1 0 -1156
DWIDTH1 0 -37
BITMAP 
FFFFE0
FFFFE0
FFFFE0
FFFFE0
FFFFE0
FFFFE0
FFFFE0
FFFFE0
FFFFE0
FFFFE0
FFFFE0
FFFFE0
FFFFE0
FFFFE0
FFFFE0
FFFFE0
ENDCHAR
STARTCHAR Oacute
ENCODING 224
SWIDTH 781 0
DWIDTH 25 0
BBX 22 29 2 0
VVECTOR 14 29
SWIDTH1 0 -1156
DWIDTH1 0 -37
BITMAP 
001F00
003C00
007000
004000
000000
000000
00FC00
07FF80
0FFFC0
1F03E0
3C00F0
780078
700038
700038
E0001C
E0001C
E0001C
E0001C
E0001C
E0001C
E0001C
700038
700038
780078
3C00F0
1F03E0
0FFFC0
07FF80
00FC00
ENDCHAR
STARTCHAR germandbls
ENCODING 225
SWIDTH 594 0
DWIDTH 19 0
BBX 16 23 2 0
VVECTOR 11 29
SWIDTH1 0 -1156
DWIDTH1 0 -37
BITMAP 
0FE0
3FF8
7C7C
701C
F01E
E00E
E00E
E01E
E01C
E07C
E3F8
E3FC
E03E
E00E
E00F
E007
E007
E007
E00F
E00E
E03E
E7FC
E7F0
ENDCHAR
STARTCHAR Ocircumflex
ENCODING 226
SWIDTH 781 0
DWIDTH 25 0
BBX 22 29 2 0
VVECTOR 14 29
SWIDTH1 0 -1156
DWIDTH1 0 -37
BITMAP 
007800
00FC00
01CE00
010200
000000
000000
00FC00
07FF80
0FFFC0
1F03E0
3C00F0
780078
700038
700038
E0001C
E0001C
E0001C
E0001C
E0001C
E0001C
E0001C
700038
700038
780078
3C00F0
1F03E0
0FFFC0
07FF80
00FC00
ENDCHAR
STARTCHAR Ograve
ENCODING 227
SWIDTH 781 0
DWIDTH 25 0
BBX 22 29 2 0
VVECTOR 14 29
SWIDTH1 0 -1156
DWIDTH1 0 -37
BITMAP 
03E000
00F000
003800
000800
000000
000000
00FC00
07FF80
0FFFC0
1F03E0
3C00F0
780078
700038
700038
E0001C
E0001C
E0001C
E0001C
E0001C
E0001C
E0001C
700038
700038
780078
3C00F0
1F03E0
0FFFC0
07FF80
00FC00
ENDCHAR
STARTCHAR otilde
ENCODING 228
SWIDTH 562 0
DWIDTH 18 0
BBX 16 23 1 0
VVECTOR 9 29
SWIDTH1 0 -1156
DWIDTH1 0 -37
BITMAP 
0F0C
1F9C
39F8
30F0
0000
0000
0000
0FF0
3FFC
7C3E
700E
F00F
E007
E007
E007
E007
E007
E007
F00F
700E
7C3E
3FFC
0FF0
ENDCHAR
STARTCHAR Otilde
ENCODING 229
SWIDTH 781 0
DWIDTH 25 0
BBX 22 29 2 0
VVECTOR 14 29
SWIDTH1 0 -1156
DWIDTH1 0 -37
BITMAP 
01E180
03F380
073F00
061E00
000000
000000
00FC00
07FF80
0FFFC0
1F03E0
3C00F0
780078
700038
700038
E0001C
E0001C
E0001C
E0001C
E0001C
E0001C
E0001C
700038
700038
780078
3C00F0
1F03E0
0FFFC0
07FF80
00FC00
ENDCHAR
STARTCHAR mu
ENCODING 230
SWIDTH 562 0
DWIDTH 18 0
BBX 16 23 2 -7
VVECTOR 11 29
SWIDTH1 0 -1156
DWIDTH1 0 -37
BITMAP 
E01C
E01C
E01C
E01C
E01C
E01C
E01C
E01C
E01C
E01C
E01C
E01C
F03C
F87E
FFCF
FF87
E000
E000
E000
E000
E000
E000
E000
ENDCHAR
STARTCHAR thorn
ENCODING 231
SWIDTH 562 0
DWIDTH 18 0
BBX 15 30 2 -7
VVECTOR 10 29
SWIDTH1 0 -1156
DWIDTH1 0 -37
BITMAP 
E000
E000
E000
E000
E000
E000
E000
E7E0
FFF8
FC7C
F01C
F01E
E00E
E00E
E00E
E00E
E00E
E00E
F01E
F01C
FC7C
FFF8
E7E0
E000
E000
E000
E000
E000
E000
E000
ENDCHAR
STARTCHAR Thorn
ENCODING 232
SWIDTH 656 0
DWIDTH 21 0
BBX 17 23 3 0
VVECTOR 13 29
SWIDTH1 0 -1156
DWIDTH1 0 -37
BITMAP 
E00000
E00000
E00000
E00000
E00000
FFF800
FFFE00
FFFF00
E00F00
E00780
E00380
E00380
E00380
E00780
E00F00
FFFF00
FFFE00
FFF800
E00000
E00000
E00000
E00000
E00000
ENDCHAR
STARTCHAR Uacute
ENCODING 233
SWIDTH 719 0
DWIDTH 23 0
BBX 18 29 3 0
VVECTOR 13 29
SWIDTH1 0 -1156
DWIDTH1 0 -37
BITMAP 
007C00
00F000
01C000
010000
000000
000000
E001C0
E001C0
E001C0
E001C0
E001C0
E001C0
E001C0
E001C0
E001C0
E001C0
E001C0
E001C0
E001C0
E001C0
E001C0
E001C0
E001C0
F003C0
700380
7C0F80
3FFF00
1FFE00
07F800
ENDCHAR
STARTCHAR Ucircumflex
ENCODING 234
SWIDTH 719 0
DWIDTH 23 0
BBX 18 29 3 0
VVECTOR 13 29
SWIDTH1 0 -1156
DWIDTH1 0 -37
BITMAP 
01E000
03F000
073800
040800
000000
000000
E001C0
E001C0
E001C0
E001C0
E001C0
E001C0
E001C0
E001C0
E001C0
E001C0
E001C0
E001C0
E001C0
E001C0
E001C0
E001C0
E001C0
F003C0
700380
7C0F80
3FFF00
1FFE00
07F800
ENDCHAR
STARTCHAR Ugrave
ENCODING 235
SWIDTH 719 0
DWIDTH 23 0
BBX 18 29 3 0
VVECTOR 13 29
SWIDTH1 0 -1156
DWIDTH1 0 -37
BITMAP 
0F8000
03C000
00E000
002000
000000
000000
E001C0
E001C0
E001C0
E001C0
E001C0
E001C0
E001C0
E001C0
E001C0
E001C0
E001C0
E001C0
E001C0
E001C0
E001C0
E001C0
E001C0
F003C0
700380
7C0F80
3FFF00
1FFE00
07F800
ENDCHAR
STARTCHAR yacute
ENCODING 236
SWIDTH 469 0
DWIDTH 15 0
BBX 15 30 0 -7
VVECTOR 8 29
SWIDTH1 0 -1156
DWIDTH1 0 -37
BITMAP 
01F0
03C0
0700
0400
0000
0000
0000
E00E
E00E
E00E
701C
701C
3838
3838
1C70
1C70
0EE0
0EE0
07C0
07C0
0380
0380
0700
0700
0E00
0E00
1C00
3C00
F800
E000
ENDCHAR
STARTCHAR Yacute
ENCODING 237
SWIDTH 688 0
DWIDTH 22 0
BBX 21 29 1 0
VVECTOR 12 29
SWIDTH1 0 -1156
DWIDTH1 0 -37
BITMAP 
003E00
007800
00E000
008000
000000
000000
E00038
F00078
7800F0
3C01E0
1C01C0
1E03C0
0F0780
078F00
038E00
03DE00
01FC00
00F800
007000
007000
007000
007000
007000
007000
007000
007000
007000
007000
007000
ENDCHAR
STARTCHAR macron
ENCODING 238
SWIDTH 500 0
DWIDTH 16 0
BBX 16 2 0 24
VVECTOR 8 29
SWIDTH1 0 -1156
DWIDTH1 0 -37
BITMAP 
FFFF
FFFF
ENDCHAR
STARTCHAR acute
ENCODING 239
SWIDTH 344 0
DWIDTH 11 0
BBX 7 4 2 19
VVECTOR 6 29
SWIDTH1 0 -1156
DWIDTH1 0 -37
BITMAP 
3E
78
E0
80
ENDCHAR
STARTCHAR uni00AD
ENCODING 240
SWIDTH 313 0
DWIDTH 10 0
BBX 8 2 1 6
VVECTOR 5 29
SWIDTH1 0 -1156
DWIDTH1 0 -37
BITMAP 
FF
FF
ENDCHAR
STARTCHAR plusminus
ENCODING 241
SWIDTH 594 0
DWIDTH 19 0
BBX 17 22 1 0
VVECTOR 10 29
SWIDTH1 0 -1156
DWIDTH1 0 -37
BITMAP 
01C000
01C000
01C000
01C000
01C000
01C000
01C000
FFFF80
FFFF80
FFFF80
01C000
01C000
01C000
01C000
01C000
01C000
01C000
000000
000000
FFFF80
FFFF80
FFFF80
ENDCHAR
STARTCHAR underscoredbl
ENCODING 242
SWIDTH 562 0
DWIDTH 18 0
BBX 18 8 0 -8
VVECTOR 9 29
SWIDTH1 0 -1156
DWIDTH1 0 -37
BITMAP 
FFFFC0
FFFFC0
000000
000000
FFFFC0
FFFFC0
FFFFC0
FFFFC0
ENDCHAR
STARTCHAR threequarters
ENCODING 243
SWIDTH 719 0
DWIDTH 23 0
BBX 20 23 2 0
VVECTOR 13 29
SWIDTH1 0 -1156
DWIDTH1 0 -37
BITMAP 
3C00E0
7E01C0
C30180
030380
1E0700
1E0600
030E00
031C00
C31800
7E3800
3C7000
006000
00E060
01C0E0
0181E0
038360
070360
060660
0E0C60
1C0FF0
180FF0
380060
700060
ENDCHAR
STARTCHAR paragraph
ENCODING 244
SWIDTH 531 0
DWIDTH 17 0
BBX 13 26 2 -4
VVECTOR 9 29
SWIDTH1 0 -1156
DWIDTH1 0 -37
BITMAP 
1FF8
7FF8
7E60
FE60
FE60
FE60
FE60
FE60
FE60
7E60
7E60
1E60
0660
0660
0660
0660
0660
0660
0660
0660
0660
0660
0660
0660
0660
0660
ENDCHAR
STARTCHAR section
ENCODING 245
SWIDTH 562 0
DWIDTH 18 0
BBX 14 29 2 -6
VVECTOR 9 29
SWIDTH1 0 -1156
DWIDTH1 0 -37
BITMAP 
0380
0FE0
1C70
3830
3838
3838
3C00
1E00
0F80
1FE0
39F0
7078
E038
E01C
E01C
E01C
701C
7838
3E70
1FE0
07C0
01E0
00F0
7070
7070
3070
38E0
1FC0
0700
ENDCHAR
STARTCHAR divide
ENCODING 246
SWIDTH 562 0
DWIDTH 18 0
BBX 12 14 3 4
VVECTOR 9 29
SWIDTH1 0 -1156
DWIDTH1 0 -37
BITMAP 
0600
0600
0600
0600
0000
0000
FFF0
FFF0
0000
0000
0600
0600
0600
0600
ENDCHAR
STARTCHAR cedilla
ENCODING 247
SWIDTH 344 0
DWIDTH 11 0
BBX 7 7 2 -7
VVECTOR 6 29
SWIDTH1 0 -1156
DWIDTH1 0 -37
BITMAP 
30
30
60
7C
06
06
FC
ENDCHAR
STARTCHAR degree
ENCODING 248
SWIDTH 344 0
DWIDTH 11 0
BBX 9 9 1 14
VVECTOR 6 29
SWIDTH1 0 -1156
DWIDTH1 0 -37
BITMAP 
1C00
7F00
6300
C180
C180
C180
6300
7F00
1C00
ENDCHAR
STARTCHAR dieresis
ENCODING 249
SWIDTH 344 0
DWIDTH 11 0
BBX 8 3 2 20
VVECTOR 7 29
SWIDTH1 0 -1156
DWIDTH1 0 -37
BITMAP 
E7
E7
E7
ENDCHAR
STARTCHAR periodcentered
ENCODING 250
SWIDTH 281 0
DWIDTH 9 0
BBX 3 3 3 11
VVECTOR 5 29
SWIDTH1 0 -1156
DWIDTH1 0 -37
BITMAP 
E0
E0
E0
ENDCHAR
STARTCHAR uni00B9
ENCODING 251
SWIDTH 281 0
DWIDTH 9 0
BBX 4 11 2 12
VVECTOR 4 29
SWIDTH1 0 -1156
DWIDTH1 0 -37
BITMAP 
30
F0
F0
30
30
30
30
30
30
30
30
ENDCHAR
STARTCHAR uni00B3
ENCODING 252
SWIDTH 281 0
DWIDTH 9 0
BBX 8 11 1 12
VVECTOR 6 29
SWIDTH1 0 -1156
DWIDTH1 0 -37
BITMAP 
3C
7E
C3
03
1E
1E
03
03
C3
7E
3C
ENDCHAR
STARTCHAR uni00B2
ENCODING 253
SWIDTH 281 0
DWIDTH 9 0
BBX 8 11 1 12
VVECTOR 6 29
SWIDTH1 0 -1156
DWIDTH1 0 -37
BITMAP 
3C
7E
C3
03
0E
3C
70
60
C0
FF
FF
ENDCHAR
STARTCHAR filledbox
ENCODING 254
SWIDTH 688 0
DWIDTH 22 0
BBX 22 22 0 0
VVECTOR 11 29
SWIDTH1 0 -1156
DWIDTH1 0 -37
BITMAP 
FFFFFC
FFFFFC
FFFFFC
FFFFFC
FFFFFC
FFFFFC
FFFFFC
FFFFFC
FFFFFC
FFFFFC
FFFFFC
FFFFFC
FFFFFC
FFFFFC
FFFFFC
FFFFFC
FFFFFC
FFFFFC
FFFFFC
FFFFFC
FFFFFC
FFFFFC
ENDCHAR
STARTCHAR uni00A0
ENCODING 255
SWIDTH 281 0
DWIDTH 9 0
BBX 0 0 9 29
VVECTOR 14 29
SWIDTH1 0 -1156
DWIDTH1 0 -37
BITMAP 
ENDCHAR
STARTCHAR peseta
ENCODING 256
SWIDTH 1094 0
DWIDTH 35 0
BBX 30 22 3 0
VVECTOR 19 29
SWIDTH1 0 -1156
DWIDTH1 0 -37
BITMAP 
FFC00000
FFF00000
C0380000
C0180000
C00C0000
C00C0000
C00C0000
C00C0000
C00C0000
C0198000
C0398000
FFF18000
FFC7E1F0
C007E3F8
C0018618
C0018600
C00183F0
C00181F8
C001800C
C001860C
C001E7F8
C000E3F0
ENDCHAR
STARTCHAR revlogicalnot
ENCODING 257
SWIDTH 594 0
DWIDTH 19 0
BBX 15 10 2 0
VVECTOR 10 29
SWIDTH1 0 -1156
DWIDTH1 0 -37
BITMAP 
FFFE
FFFE
C000
C000
C000
C000
C000
C000
C000
C000
ENDCHAR
STARTCHAR SF190000
ENCODING 258
SWIDTH 594 0
DWIDTH 19 0
BBX 10 37 0 -8
VVECTOR 1 29
SWIDTH1 0 -1156
DWIDTH1 0 -37
BITMAP 
00C0
00C0
00C0
00C0
00C0
00C0
00C0
00C0
00C0
00C0
00C0
00C0
00C0
FFC0
FFC0
00C0
00C0
FFC0
FFC0
00C0
00C0
00C0
00C0
00C0
00C0
00C0
00C0
00C0
00C0
00C0
00C0
00C0
00C0
00C0
00C0
00C0
00C0
ENDCHAR
STARTCHAR SF200000
ENCODING 259
SWIDTH 594 0
DWIDTH 19 0
BBX 12 37 0 -8
VVECTOR 3 29
SWIDTH1 0 -1156
DWIDTH1 0 -37
BITMAP 
0330
0330
0330
0330
0330
0330
0330
0330
0330
0330
0330
0330
0330
0330
0330
FF30
FF30
0330
0330
0330
0330
0330
0330
0330
0330
0330
0330
0330
0330
0330
0330
0330
0330
0330
0330
0330
0330
ENDCHAR
STARTCHAR SF210000
ENCODING 260
SWIDTH 594 0
DWIDTH 19 0
BBX 12 22 0 -8
VVECTOR 3 29
SWIDTH1 0 -1156
DWIDTH1 0 -37
BITMAP 
FFF0
FFF0
0330
0330
0330
0330
0330
0330
0330
0330
0330
0330
0330
0330
0330
0330
0330
0330
0330
0330
0330
0330
ENDCHAR
STARTCHAR SF220000
ENCODING 261
SWIDTH 594 0
DWIDTH 19 0
BBX 10 24 0 -8
VVECTOR 1 29
SWIDTH1 0 -1156
DWIDTH1 0 -37
BITMAP 
FFC0
FFC0
00C0
00C0
FFC0
FFC0
00C0
00C0
00C0
00C0
00C0
00C0
00C0
00C0
00C0
00C0
00C0
00C0
00C0
00C0
00C0
00C0
00C0
00C0
ENDCHAR
STARTCHAR SF270000
ENCODING 262
SWIDTH 594 0
DWIDTH 19 0
BBX 12 17 0 12
VVECTOR 3 29
SWIDTH1 0 -1156
DWIDTH1 0 -37
BITMAP 
0330
0330
0330
0330
0330
0330
0330
0330
0330
0330
0330
0330
0330
0330
0330
FFF0
FFF0
ENDCHAR
STARTCHAR SF280000
ENCODING 263
SWIDTH 594 0
DWIDTH 19 0
BBX 10 19 0 10
VVECTOR 1 29
SWIDTH1 0 -1156
DWIDTH1 0 -37
BITMAP 
00C0
00C0
00C0
00C0
00C0
00C0
00C0
00C0
00C0
00C0
00C0
00C0
00C0
FFC0
FFC0
00C0
00C0
FFC0
FFC0
ENDCHAR
STARTCHAR SF360000
ENCODING 264
SWIDTH 594 0
DWIDTH 19 0
BBX 11 37 8 -8
VVECTOR 18 29
SWIDTH1 0 -1156
DWIDTH1 0 -37
BITMAP 
C000
C000
C000
C000
C000
C000
C000
C000
C000
C000
C000
C000
C000
FFE0
FFE0
C000
C000
FFE0
FFE0
C000
C000
C000
C000
C000
C000
C000
C000
C000
C000
C000
C000
C000
C000
C000
C000
C000
C000
ENDCHAR
STARTCHAR SF370000
ENCODING 265
SWIDTH 594 0
DWIDTH 19 0
BBX 13 37 6 -8
VVECTOR 16 29
SWIDTH1 0 -1156
DWIDTH1 0 -37
BITMAP 
CC00
CC00
CC00
CC00
CC00
CC00
CC00
CC00
CC00
CC00
CC00
CC00
CC00
CC00
CC00
CFF8
CFF8
CC00
CC00
CC00
CC00
CC00
CC00
CC00
CC00
CC00
CC00
CC00
CC00
CC00
CC00
CC00
CC00
CC00
CC00
CC00
CC00
ENDCHAR
STARTCHAR SF450000
ENCODING 266
SWIDTH 594 0
DWIDTH 19 0
BBX 19 19 0 10
VVECTOR 10 29
SWIDTH1 0 -1156
DWIDTH1 0 -37
BITMAP 
00C000
00C000
00C000
00C000
00C000
00C000
00C000
00C000
00C000
00C000
00C000
00C000
00C000
FFFFE0
FFFFE0
000000
000000
FFFFE0
FFFFE0
ENDCHAR
STARTCHAR SF460000
ENCODING 267
SWIDTH 594 0
DWIDTH 19 0
BBX 19 17 0 12
VVECTOR 10 29
SWIDTH1 0 -1156
DWIDTH1 0 -37
BITMAP 
033000
033000
033000
033000
033000
033000
033000
033000
033000
033000
033000
033000
033000
033000
033000
FFFFE0
FFFFE0
ENDCHAR
STARTCHAR SF470000
ENCODING 268
SWIDTH 594 0
DWIDTH 19 0
BBX 19 24 0 -8
VVECTOR 10 29
SWIDTH1 0 -1156
DWIDTH1 0 -37
BITMAP 
FFFFE0
FFFFE0
000000
000000
FFFFE0
FFFFE0
00C000
00C000
00C000
00C000
00C000
00C000
00C000
00C000
00C000
00C000
00C000
00C000
00C000
00C000
00C000
00C000
00C000
00C000
ENDCHAR
STARTCHAR SF480000
ENCODING 269
SWIDTH 594 0
DWIDTH 19 0
BBX 19 22 0 -8
VVECTOR 10 29
SWIDTH1 0 -1156
DWIDTH1 0 -37
BITMAP 
FFFFE0
FFFFE0
033000
033000
033000
033000
033000
033000
033000
033000
033000
033000
033000
033000
033000
033000
033000
033000
033000
033000
033000
033000
ENDCHAR
STARTCHAR SF490000
ENCODING 270
SWIDTH 594 0
DWIDTH 19 0
BBX 13 17 6 12
VVECTOR 16 29
SWIDTH1 0 -1156
DWIDTH1 0 -37
BITMAP 
CC00
CC00
CC00
CC00
CC00
CC00
CC00
CC00
CC00
CC00
CC00
CC00
CC00
CC00
CC00
FFF8
FFF8
ENDCHAR
STARTCHAR SF500000
ENCODING 271
SWIDTH 594 0
DWIDTH 19 0
BBX 11 19 8 10
VVECTOR 18 29
SWIDTH1 0 -1156
DWIDTH1 0 -37
BITMAP 
C000
C000
C000
C000
C000
C000
C000
C000
C000
C000
C000
C000
C000
FFE0
FFE0
C000
C000
FFE0
FFE0
ENDCHAR
STARTCHAR SF510000
ENCODING 272
SWIDTH 594 0
DWIDTH 19 0
BBX 11 24 8 -8
VVECTOR 18 29
SWIDTH1 0 -1156
DWIDTH1 0 -37
BITMAP 
FFE0
FFE0
C000
C000
FFE0
FFE0
C000
C000
C000
C000
C000
C000
C000
C000
C000
C000
C000
C000
C000
C000
C000
C000
C000
C000
ENDCHAR
STARTCHAR SF520000
ENCODING 273
SWIDTH 594 0
DWIDTH 19 0
BBX 13 22 6 -8
VVECTOR 16 29
SWIDTH1 0 -1156
DWIDTH1 0 -37
BITMAP 
FFF8
FFF8
CC00
CC00
CC00
CC00
CC00
CC00
CC00
CC00
CC00
CC00
CC00
CC00
CC00
CC00
CC00
CC00
CC00
CC00
CC00
CC00
ENDCHAR
STARTCHAR SF530000
ENCODING 274
SWIDTH 594 0
DWIDTH 19 0
BBX 19 37 0 -8
VVECTOR 10 29
SWIDTH1 0 -1156
DWIDTH1 0 -37
BITMAP 
033000
033000
033000
033000
033000
033000
033000
033000
033000
033000
033000
033000
033000
033000
033000
FFFFE0
FFFFE0
033000
033000
033000
033000
033000
033000
033000
033000
033000
033000
033000
033000
033000
033000
033000
033000
033000
033000
033000
033000
ENDCHAR
STARTCHAR SF540000
ENCODING 275
SWIDTH 594 0
DWIDTH 19 0
BBX 19 37 0 -8
VVECTOR 10 29
SWIDTH1 0 -1156
DWIDTH1 0 -37
BITMAP 
00C000
00C000
00C000
00C000
00C000
00C000
00C000
00C000
00C000
00C000
00C000
00C000
00C000
FFFFE0
FFFFE0
00C000
00C000
FFFFE0
FFFFE0
00C000
00C000
00C000
00C000
00C000
00C000
00C000
00C000
00C000
00C000
00C000
00C000
00C000
00C000
00C000
00C000
00C000
00C000
ENDCHAR
STARTCHAR lfblock
ENCODING 276
SWIDTH 594 0
DWIDTH 19 0
BBX 10 37 0 -8
VVECTOR 1 29
SWIDTH1 0 -1156
DWIDTH1 0 -37
BITMAP 
FFC0
FFC0
FFC0
FFC0
FFC0
FFC0
FFC0
FFC0
FFC0
FFC0
FFC0
FFC0
FFC0
FFC0
FFC0
FFC0
FFC0
FFC0
FFC0
FFC0
FFC0
FFC0
FFC0
FFC0
FFC0
FFC0
FFC0
FFC0
FFC0
FFC0
FFC0
FFC0
FFC0
FFC0
FFC0
FFC0
FFC0
ENDCHAR
STARTCHAR rtblock
ENCODING 277
SWIDTH 594 0
DWIDTH 19 0
BBX 10 37 9 -8
VVECTOR 19 29
SWIDTH1 0 -1156
DWIDTH1 0 -37
BITMAP 
FFC0
FFC0
FFC0
FFC0
FFC0
FFC0
FFC0
FFC0
FFC0
FFC0
FFC0
FFC0
FFC0
FFC0
FFC0
FFC0
FFC0
FFC0
FFC0
FFC0
FFC0
FFC0
FFC0
FFC0
FFC0
FFC0
FFC0
FFC0
FFC0
FFC0
FFC0
FFC0
FFC0
FFC0
FFC0
FFC0
FFC0
ENDCHAR
STARTCHAR alpha
ENCODING 278
SWIDTH 656 0
DWIDTH 21 0
BBX 17 16 2 0
VVECTOR 11 29
SWIDTH1 0 -1156
DWIDTH1 0 -37
BITMAP 
0F8180
3FE180
707300
603B00
C01B00
C00E00
C00E00
C00400
C00C00
C00E00
C01E00
C03B00
607300
70E300
3FC180
0F0180
ENDCHAR
STARTCHAR Gamma
ENCODING 279
SWIDTH 562 0
DWIDTH 18 0
BBX 14 22 3 0
VVECTOR 11 29
SWIDTH1 0 -1156
DWIDTH1 0 -37
BITMAP 
FFFC
FFFC
C000
C000
C000
C000
C000
C000
C000
C000
C000
C000
C000
C000
C000
C000
C000
C000
C000
C000
C000
C000
ENDCHAR
STARTCHAR pi
ENCODING 280
SWIDTH 594 0
DWIDTH 19 0
BBX 17 16 1 0
VVECTOR 10 29
SWIDTH1 0 -1156
DWIDTH1 0 -37
BITMAP 
FFFF80
FFFF80
180C00
180C00
180C00
180C00
180C00
180C00
180C00
180C00
180C00
180C00
180C00
180C00
180C00
180C00
ENDCHAR
STARTCHAR Sigma
ENCODING 281
SWIDTH 594 0
DWIDTH 19 0
BBX 16 22 2 0
VVECTOR 11 29
SWIDTH1 0 -1156
DWIDTH1 0 -37
BITMAP 
FFFE
FFFE
6000
3000
3800
1C00
0C00
0600
0700
0380
01C0
0180
0300
0700
0E00
0C00
1800
3800
3000
6000
FFFF
FFFF
ENDCHAR
STARTCHAR sigma
ENCODING 282
SWIDTH 562 0
DWIDTH 18 0
BBX 15 16 2 0
VVECTOR 10 29
SWIDTH1 0 -1156
DWIDTH1 0 -37
BITMAP 
0FFE
3FFE
7038
6018
C00C
C00C
C00C
C00C
C00C
C00C
C00C
C00C
6018
7038
3FF0
0FC0
ENDCHAR
STARTCHAR tau
ENCODING 283
SWIDTH 438 0
DWIDTH 14 0
BBX 14 16 0 0
VVECTOR 7 29
SWIDTH1 0 -1156
DWIDTH1 0 -37
BITMAP 
FFFC
FFFC
0300
0300
0300
0300
0300
0300
0300
0300
0300
0300
0300
0300
0300
0300
ENDCHAR
STARTCHAR Phi
ENCODING 284
SWIDTH 750 0
DWIDTH 24 0
BBX 20 22 2 0
VVECTOR 12 29
SWIDTH1 0 -1156
DWIDTH1 0 -37
BITMAP 
006000
006000
07FE00
1FFF80
3861C0
7060E0
606060
C06030
C06030
C06030
C06030
C06030
C06030
C06030
606060
7060E0
3861C0
1FFF80
07FE00
006000
006000
006000
ENDCHAR
STARTCHAR Theta
ENCODING 285
SWIDTH 750 0
DWIDTH 24 0
BBX 20 22 2 0
VVECTOR 12 29
SWIDTH1 0 -1156
DWIDTH1 0 -37
BITMAP 
01F800
07FE00
1E0780
3801C0
3000C0
600060
600060
C00030
C00030
C7FE30
C7FE30
C00030
C00030
C00030
C00030
600060
600060
3000C0
3801C0
1E0780
07FE00
01F800
ENDCHAR
STARTCHAR uni03A9
ENCODING 286
SWIDTH 750 0
DWIDTH 24 0
BBX 20 22 2 0
VVECTOR 12 29
SWIDTH1 0 -1156
DWIDTH1 0 -37
BITMAP 
01F800
07FE00
1E0780
3801C0
3000C0
600060
600060
C00030
C00030
C00030
C00030
C00030
C00030
600060
600060
3000C0
3C03C0
0F0F00
030C00
030C00
FF0FF0
FF0FF0
ENDCHAR
STARTCHAR delta
ENCODING 287
SWIDTH 562 0
DWIDTH 18 0
BBX 14 22 2 0
VVECTOR 9 29
SWIDTH1 0 -1156
DWIDTH1 0 -37
BITMAP 
3FF0
3FF0
1800
0E00
0700
0180
0FC0
3FF0
7038
6018
C00C
C00C
C00C
C00C
C00C
C00C
C00C
C00C
6018
7038
3FF0
0FC0
ENDCHAR
STARTCHAR infinity
ENCODING 288
SWIDTH 781 0
DWIDTH 25 0
BBX 21 10 2 6
VVECTOR 13 29
SWIDTH1 0 -1156
DWIDTH1 0 -37
BITMAP 
1E03C0
7F8FF0
61DC30
C0D818
C07018
C07018
C0D818
61DC30
7F8FF0
1E03C0
ENDCHAR
STARTCHAR phi1
ENCODING 289
SWIDTH 688 0
DWIDTH 22 0
BBX 18 29 2 -6
VVECTOR 11 29
SWIDTH1 0 -1156
DWIDTH1 0 -37
BITMAP 
00C000
00C000
00C000
00C000
00C000
00C000
00C000
0FFC00
3FFF00
70C380
60C180
C0C0C0
C0C0C0
C0C0C0
C0C0C0
C0C0C0
C0C0C0
C0C0C0
C0C0C0
60C180
70C380
3FFF00
0FFC00
00C000
00C000
00C000
00C000
00C000
00C000
ENDCHAR
STARTCHAR epsilon
ENCODING 290
SWIDTH 531 0
DWIDTH 17 0
BBX 13 16 2 0
VVECTOR 9 29
SWIDTH1 0 -1156
DWIDTH1 0 -37
BITMAP 
0FC0
3FF0
3030
6018
6018
3000
1F00
1F00
7000
6000
C000
C018
6018
7038
3FF0
0FC0
ENDCHAR
STARTCHAR intersection
ENCODING 291
SWIDTH 625 0
DWIDTH 20 0
BBX 16 22 2 0
VVECTOR 10 29
SWIDTH1 0 -1156
DWIDTH1 0 -37
BITMAP 
07E0
1FF8
381C
700E
6006
C003
C003
C003
C003
C003
C003
C003
C003
C003
C003
C003
C003
C003
C003
C003
C003
C003
ENDCHAR
STARTCHAR equivalence
ENCODING 292
SWIDTH 562 0
DWIDTH 18 0
BBX 12 10 3 6
VVECTOR 9 29
SWIDTH1 0 -1156
DWIDTH1 0 -37
BITMAP 
FFF0
FFF0
0000
0000
FFF0
FFF0
0000
0000
FFF0
FFF0
ENDCHAR
STARTCHAR greaterequal
ENCODING 293
SWIDTH 594 0
DWIDTH 19 0
BBX 13 17 3 0
VVECTOR 10 29
SWIDTH1 0 -1156
DWIDTH1 0 -37
BITMAP 
8000
E000
F800
3E00
0F80
03E0
0078
03E0
0F80
3E00
F800
E000
8000
0000
0000
FFF8
FFF8
ENDCHAR
STARTCHAR lessequal
ENCODING 294
SWIDTH 594 0
DWIDTH 19 0
BBX 13 17 3 0
VVECTOR 10 29
SWIDTH1 0 -1156
DWIDTH1 0 -37
BITMAP 
0008
0038
00F8
03E0
0F80
3E00
F000
3E00
0F80
03E0
00F8
0038
0008
0000
0000
FFF8
FFF8
ENDCHAR
STARTCHAR integraltp
ENCODING 295
SWIDTH 750 0
DWIDTH 24 0
BBX 8 31 11 -6
VVECTOR 18 29
SWIDTH1 0 -1156
DWIDTH1 0 -37
BITMAP 
3E
7F
5F
CE
C0
C0
C0
C0
C0
C0
C0
C0
C0
C0
C0
C0
C0
C0
C0
C0
C0
C0
C0
C0
C0
C0
C0
C0
C0
C0
C0
ENDCHAR
STARTCHAR integralbt
ENCODING 296
SWIDTH 750 0
DWIDTH 24 0
BBX 8 31 5 -3
VVECTOR 6 29
SWIDTH1 0 -1156
DWIDTH1 0 -37
BITMAP 
03
03
03
03
03
03
03
03
03
03
03
03
03
03
03
03
03
03
03
03
03
03
03
03
03
03
03
73
FA
FE
7C
ENDCHAR
STARTCHAR approxequal
ENCODING 297
SWIDTH 562 0
DWIDTH 18 0
BBX 14 8 2 7
VVECTOR 9 29
SWIDTH1 0 -1156
DWIDTH1 0 -37
BITMAP 
3E18
FFFC
61F0
0000
0000
3E18
FFFC
61F0
ENDCHAR
STARTCHAR uni2219
ENCODING 298
SWIDTH 562 0
DWIDTH 18 0
BBX 4 4 7 9
VVECTOR 9 29
SWIDTH1 0 -1156
DWIDTH1 0 -37
BITMAP 
F0
F0
F0
F0
ENDCHAR
STARTCHAR radical
ENCODING 299
SWIDTH 625 0
DWIDTH 20 0
BBX 19 24 1 0
VVECTOR 11 29
SWIDTH1 0 -1156
DWIDTH1 0 -37
BITMAP 
000FE0
000FE0
001C00
001800
001800
003800
003000
003000
007000
006000
006000
00E000
00C000
F8C000
F9C000
198000
198000
1F8000
0F0000
0F0000
0F0000
060000
060000
060000
ENDCHAR
STARTCHAR uni207F
ENCODING 300
SWIDTH 438 0
DWIDTH 14 0
BBX 10 11 2 11
VVECTOR 7 29
SWIDTH1 0 -1156
DWIDTH1 0 -37
BITMAP 
C700
DF80
F9C0
E0C0
C0C0
C0C0
C0C0
C0C0
C0C0
C0C0
C0C0
ENDCHAR
STARTCHAR uni02C9
ENCODING 301
SWIDTH 344 0
DWIDTH 11 0
BBX 11 2 0 26
VVECTOR 6 29
SWIDTH1 0 -1156
DWIDTH1 0 -37
BITMAP 
FFE0
FFE0
ENDCHAR
STARTCHAR breve
ENCODING 302
SWIDTH 344 0
DWIDTH 11 0
BBX 11 4 0 24
VVECTOR 6 29
SWIDTH1 0 -1156
DWIDTH1 0 -37
BITMAP 
C060
60C0
3F80
1F00
ENDCHAR
STARTCHAR dotaccent
ENCODING 303
SWIDTH 344 0
DWIDTH 11 0
BBX 2 3 4 25
VVECTOR 5 29
SWIDTH1 0 -1156
DWIDTH1 0 -37
BITMAP 
C0
C0
C0
ENDCHAR
STARTCHAR ring
ENCODING 304
SWIDTH 344 0
DWIDTH 11 0
BBX 7 7 2 21
VVECTOR 6 29
SWIDTH1 0 -1156
DWIDTH1 0 -37
BITMAP 
38
7C
C6
C6
C6
7C
38
ENDCHAR
STARTCHAR hungarumlaut
ENCODING 305
SWIDTH 344 0
DWIDTH 11 0
BBX 11 4 0 24
VVECTOR 6 29
SWIDTH1 0 -1156
DWIDTH1 0 -37
BITMAP 
1CE0
39C0
7380
C600
ENDCHAR
STARTCHAR ogonek
ENCODING 306
SWIDTH 344 0
DWIDTH 11 0
BBX 11 6 0 -6
VVECTOR 6 29
SWIDTH1 0 -1156
DWIDTH1 0 -37
BITMAP 
C000
C000
6000
7060
3FC0
0F80
ENDCHAR
STARTCHAR caron
ENCODING 307
SWIDTH 344 0
DWIDTH 11 0
BBX 11 4 0 24
VVECTOR 6 29
SWIDTH1 0 -1156
DWIDTH1 0 -37
BITMAP 
E0E0
71C0
3B80
1F00
ENDCHAR
STARTCHAR quoteleft
ENCODING 308
SWIDTH 219 0
DWIDTH 7 0
BBX 2 7 3 21
VVECTOR 5 29
SWIDTH1 0 -1156
DWIDTH1 0 -37
BITMAP 
40
C0
80
80
C0
C0
C0
ENDCHAR
STARTCHAR quoteright
ENCODING 309
SWIDTH 219 0
DWIDTH 7 0
BBX 2 7 3 21
VVECTOR 5 29
SWIDTH1 0 -1156
DWIDTH1 0 -37
BITMAP 
C0
C0
C0
40
40
C0
80
ENDCHAR
STARTCHAR quotedblleft
ENCODING 310
SWIDTH 344 0
DWIDTH 11 0
BBX 5 7 3 21
VVECTOR 6 29
SWIDTH1 0 -1156
DWIDTH1 0 -37
BITMAP 
48
D8
90
90
D8
D8
D8
ENDCHAR
STARTCHAR quotedblright
ENCODING 311
SWIDTH 344 0
DWIDTH 11 0
BBX 5 7 3 21
VVECTOR 6 29
SWIDTH1 0 -1156
DWIDTH1 0 -37
BITMAP 
D8
D8
D8
48
48
D8
90
ENDCHAR
STARTCHAR endash
ENCODING 312
SWIDTH 562 0
DWIDTH 18 0
BBX 13 2 3 8
VVECTOR 10 29
SWIDTH1 0 -1156
DWIDTH1 0 -37
BITMAP 
FFF8
FFF8
ENDCHAR
STARTCHAR emdash
ENCODING 313
SWIDTH 1000 0
DWIDTH 32 0
BBX 22 2 3 8
VVECTOR 12 29
SWIDTH1 0 -1156
DWIDTH1 0 -37
BITMAP 
FFFFFC
FFFFFC
ENDCHAR
STARTCHAR uniFFE5
ENCODING 314
SWIDTH 469 0
DWIDTH 15 0
BBX 13 5 1 23
VVECTOR 8 29
SWIDTH1 0 -1156
DWIDTH1 0 -37
BITMAP 
0F80
1DC0
38E0
7070
E038
ENDCHAR
STARTCHAR dotlessi
ENCODING 315
SWIDTH 594 0
DWIDTH 19 0
BBX 13 4 3 24
VVECTOR 10 29
SWIDTH1 0 -1156
DWIDTH1 0 -37
BITMAP 
7C18
FF18
C7F8
C1F0
ENDCHAR
STARTCHAR quotesinglbase
ENCODING 316
SWIDTH 219 0
DWIDTH 7 0
BBX 2 7 3 -4
VVECTOR 5 29
SWIDTH1 0 -1156
DWIDTH1 0 -37
BITMAP 
C0
C0
C0
40
40
C0
80
ENDCHAR
STARTCHAR quotedblbase
ENCODING 317
SWIDTH 344 0
DWIDTH 11 0
BBX 5 7 3 -4
VVECTOR 6 29
SWIDTH1 0 -1156
DWIDTH1 0 -37
BITMAP 
D8
D8
D8
48
48
D8
90
ENDCHAR
STARTCHAR ellipsis
ENCODING 318
SWIDTH 1000 0
DWIDTH 32 0
BBX 25 3 4 0
VVECTOR 17 29
SWIDTH1 0 -1156
DWIDTH1 0 -37
BITMAP 
E01C0380
E01C0380
E01C0380
ENDCHAR
STARTCHAR dagger
ENCODING 319
SWIDTH 562 0
DWIDTH 18 0
BBX 15 29 2 0
VVECTOR 10 29
SWIDTH1 0 -1156
DWIDTH1 0 -37
BITMAP 
0380
0380
0380
0380
0380
0380
FFFE
FFFE
FFFE
0380
0380
0380
0380
0380
0380
0380
0380
0380
0380
0380
0380
0380
0380
0380
0380
0380
0380
0380
0380
ENDCHAR
STARTCHAR daggerdbl
ENCODING 320
SWIDTH 562 0
DWIDTH 18 0
BBX 15 29 2 0
VVECTOR 10 29
SWIDTH1 0 -1156
DWIDTH1 0 -37
BITMAP 
0380
0380
0380
0380
0380
0380
FFFE
FFFE
FFFE
0380
0380
0380
0380
0380
0380
0380
0380
FFFE
FFFE
FFFE
0380
0380
0380
0380
0380
0380
0380
0380
0380
ENDCHAR
STARTCHAR circumflex
ENCODING 321
SWIDTH 344 0
DWIDTH 11 0
BBX 11 4 0 19
VVECTOR 6 29
SWIDTH1 0 -1156
DWIDTH1 0 -37
BITMAP 
1F00
3B80
71C0
E0E0
ENDCHAR
STARTCHAR perthousand
ENCODING 322
SWIDTH 1000 0
DWIDTH 32 0
BBX 32 23 0 0
VVECTOR 16 29
SWIDTH1 0 -1156
DWIDTH1 0 -37
BITMAP 
1E00E000
7F80C000
6181C000
C0C18000
C0C38000
C0C30000
C0C70000
61860000
7F8E0000
1E0C0000
001C0000
00180000
00380000
00307878
0071FFFE
00618786
00E30303
00C30303
01C30303
01830303
03818786
0301FFFE
07007878
ENDCHAR
STARTCHAR Scaron
ENCODING 323
SWIDTH 656 0
DWIDTH 21 0
BBX 19 29 1 0
VVECTOR 11 29
SWIDTH1 0 -1156
DWIDTH1 0 -37
BITMAP 
020400
039C00
01F800
00F000
000000
000000
07FC00
1FFF00
3FFF80
3C0780
7803C0
7001C0
700000
780000
3C0000
3FC000
1FFE00
07FF80
007FC0
0003C0
0001E0
0000E0
E000E0
F000E0
7001E0
7C03C0
3FFFC0
1FFF80
07FE00
ENDCHAR
STARTCHAR guilsinglleft
ENCODING 324
SWIDTH 344 0
DWIDTH 11 0
BBX 7 11 2 3
VVECTOR 6 29
SWIDTH1 0 -1156
DWIDTH1 0 -37
BITMAP 
0E
1C
38
70
E0
C0
E0
70
38
1C
0E
ENDCHAR
STARTCHAR OE
ENCODING 325
SWIDTH 1000 0
DWIDTH 32 0
BBX 30 23 1 0
VVECTOR 16 29
SWIDTH1 0 -1156
DWIDTH1 0 -37
BITMAP 
01F8FFFC
0FFEFFFC
1FFFFFFC
3F07E000
3C01E000
7800E000
7000E000
7000E000
E000E000
E000FFF8
E000FFF8
E000FFF8
E000E000
E000E000
E000E000
7000E000
7000E000
7800E000
3C01E000
3F07E000
1FFFFFFC
0FFEFFFC
01F8FFFC
ENDCHAR
STARTCHAR tilde
ENCODING 326
SWIDTH 344 0
DWIDTH 11 0
BBX 11 4 0 19
VVECTOR 6 29
SWIDTH1 0 -1156
DWIDTH1 0 -37
BITMAP 
3860
7EE0
EFC0
C380
ENDCHAR
STARTCHAR trademark
ENCODING 327
SWIDTH 1000 0
DWIDTH 32 0
BBX 30 14 1 9
VVECTOR 16 29
SWIDTH1 0 -1156
DWIDTH1 0 -37
BITMAP 
FFE7C07C
FFE7C07C
0E0760DC
0E0760DC
0E0760DC
0E07319C
0E07319C
0E07319C
0E071B1C
0E071B1C
0E071B1C
0E070E1C
0E070E1C
0E07041C
ENDCHAR
STARTCHAR scaron
ENCODING 328
SWIDTH 500 0
DWIDTH 16 0
BBX 14 23 1 0
VVECTOR 8 29
SWIDTH1 0 -1156
DWIDTH1 0 -37
BITMAP 
1C70
0EE0
07C0
0380
0000
0000
0000
0FE0
3FF8
3838
701C
7000
7000
3800
3FE0
0FF8
0038
001C
E01C
E01C
7038
7FF8
1FE0
ENDCHAR
STARTCHAR guilsinglright
ENCODING 329
SWIDTH 344 0
DWIDTH 11 0
BBX 7 11 2 3
VVECTOR 6 29
SWIDTH1 0 -1156
DWIDTH1 0 -37
BITMAP 
E0
70
38
1C
0E
06
0E
1C
38
70
E0
ENDCHAR
STARTCHAR oe
ENCODING 330
SWIDTH 969 0
DWIDTH 31 0
BBX 27 16 2 0
VVECTOR 16 29
SWIDTH1 0 -1156
DWIDTH1 0 -37
BITMAP 
0FC07E00
3FF1FF80
7C7BC7C0
701F01C0
F01F01E0
E00E00E0
E00FFFE0
E00FFFE0
E00E0000
E00E0000
E00E0000
F01F01E0
701F01C0
7C7BC7C0
3FF1FF80
0FC07E00
ENDCHAR
ENDFONT
